<?xml version="1.0" encoding="UTF-8" standalone="no"?>
<svg
   version="1.1"
   viewBox="0 0 921600 291600"
   fill="none"
   stroke="none"
   stroke-linecap="square"
   stroke-miterlimit="10"
   id="svg23"
   sodipodi:docname="Unbenannte Präsentation (2).svg"
   width="921600"
   height="291600"
   xmlns:inkscape="http://www.inkscape.org/namespaces/inkscape"
   xmlns:sodipodi="http://sodipodi.sourceforge.net/DTD/sodipodi-0.dtd"
   xmlns="http://www.w3.org/2000/svg"
   xmlns:svg="http://www.w3.org/2000/svg">
  <defs
     id="defs23" />
  <sodipodi:namedview
     id="namedview23"
     pagecolor="#ffffff"
     bordercolor="#000000"
     borderopacity="0.25"
     inkscape:showpageshadow="2"
     inkscape:pageopacity="0.0"
     inkscape:pagecheckerboard="0"
     inkscape:deskcolor="#d1d1d1">
    <inkscape:page
       x="0"
       y="0"
       width="921600"
       height="291600"
       id="page2"
       margin="0"
       bleed="0" />
  </sodipodi:namedview>
  <path
     fill="#000000"
     fill-opacity="0"
     d="M 203.38839,41.629987 H 812.55373 V 297.34651 H 203.38839 Z"
     fill-rule="evenodd"
     id="path3" />
  <path
     stroke="#595959"
     stroke-width="1"
     stroke-linejoin="round"
     stroke-linecap="butt"
     d="M 203.38839,41.629987 H 812.55373 V 297.34651 H 203.38839 Z"
     fill-rule="evenodd"
     id="path4" />
  <path
     fill="#000000"
     d="m 227.52251,67.28186 q 0,-0.53125 -0.17188,-0.9375 -0.15625,-0.421875 -0.5625,-0.75 -0.39062,-0.34375 -1.09375,-0.640625 -0.70312,-0.296875 -1.78125,-0.609375 -1.125,-0.34375 -2.03125,-0.75 -0.90625,-0.40625 -1.54687,-0.9375 -0.64063,-0.53125 -0.98438,-1.21875 -0.34375,-0.6875 -0.34375,-1.578125 0,-0.875 0.35938,-1.625 0.35937,-0.75 1.04687,-1.3125 0.6875,-0.5625 1.625,-0.875 0.95313,-0.3125 2.125,-0.3125 1.70313,0 2.89063,0.65625 1.20312,0.65625 1.8125,1.703125 0.625,1.046875 0.625,2.234375 h -1.98438 q 0,-0.859375 -0.375,-1.515625 -0.35937,-0.671875 -1.10937,-1.046875 -0.73438,-0.375 -1.85938,-0.375 -1.07812,0 -1.78125,0.328125 -0.6875,0.3125 -1.03125,0.875 -0.34375,0.546875 -0.34375,1.25 0,0.484375 0.20313,0.875 0.20312,0.375 0.64062,0.71875 0.4375,0.328125 1.10938,0.609375 0.67187,0.28125 1.60937,0.546875 1.28125,0.359375 2.21875,0.8125 0.9375,0.4375 1.54688,1 0.60937,0.5625 0.90625,1.265625 0.29687,0.703125 0.29687,1.578125 0,0.9375 -0.375,1.6875 -0.375,0.75 -1.07812,1.28125 -0.6875,0.53125 -1.67188,0.8125 -0.96875,0.28125 -2.15625,0.28125 -1.0625,0 -2.07812,-0.28125 -1.01563,-0.296875 -1.84375,-0.875 -0.82813,-0.59375 -1.32813,-1.453125 -0.48437,-0.859375 -0.48437,-1.984375 h 2 q 0,0.78125 0.29687,1.34375 0.3125,0.546875 0.82813,0.921875 0.53125,0.359375 1.20312,0.53125 0.67188,0.171875 1.40625,0.171875 1.04688,0 1.76563,-0.296875 0.73437,-0.296875 1.10937,-0.828125 0.39063,-0.546875 0.39063,-1.28125 z m 8.96045,4.03125 q -1.17188,0 -2.125,-0.390625 -0.95313,-0.40625 -1.64063,-1.125 -0.67187,-0.734375 -1.04687,-1.734375 -0.35938,-1 -0.35938,-2.1875 v -0.4375 q 0,-1.375 0.40625,-2.453125 0.40625,-1.078125 1.09375,-1.828125 0.70313,-0.75 1.59375,-1.125 0.89063,-0.390625 1.82813,-0.390625 1.21875,0 2.09375,0.421875 0.875,0.40625 1.4375,1.15625 0.5625,0.734375 0.82812,1.75 0.28125,1 0.28125,2.1875 v 0.859375 h -8.42187 V 64.43811 h 6.5 v -0.140625 q -0.0469,-0.75 -0.3125,-1.453125 -0.26563,-0.71875 -0.84375,-1.171875 -0.5625,-0.453125 -1.5625,-0.453125 -0.65625,0 -1.20313,0.28125 -0.54687,0.265625 -0.95312,0.8125 -0.39063,0.53125 -0.60938,1.3125 -0.21875,0.78125 -0.21875,1.8125 v 0.4375 q 0,0.796875 0.21875,1.5 0.23438,0.703125 0.65625,1.234375 0.4375,0.53125 1.04688,0.84375 0.625,0.296875 1.42187,0.296875 1.01563,0 1.71875,-0.421875 0.71875,-0.421875 1.25,-1.109375 l 1.17188,0.921875 q -0.375,0.546875 -0.9375,1.046875 -0.5625,0.5 -1.375,0.8125 -0.8125,0.3125 -1.9375,0.3125 z m 8.55974,-9.234375 v 9.03125 h -1.9375 V 59.84436 h 1.82812 z m -0.40625,2.96875 -0.89063,-0.03125 q 0.0156,-1.15625 0.29688,-2.140625 0.29687,-0.984375 0.85937,-1.703125 0.57813,-0.734375 1.4375,-1.125 0.85938,-0.40625 1.98438,-0.40625 0.78125,0 1.45312,0.21875 0.67188,0.21875 1.15625,0.703125 0.48438,0.46875 0.75,1.21875 0.28125,0.75 0.28125,1.8125 v 7.515625 H 250.0427 V 63.68811 q 0,-0.875 -0.29688,-1.40625 -0.29687,-0.53125 -0.84375,-0.78125 -0.54687,-0.25 -1.26562,-0.25 -0.85938,0 -1.4375,0.3125 -0.5625,0.296875 -0.90625,0.828125 -0.34375,0.53125 -0.5,1.21875 -0.15625,0.671875 -0.15625,1.4375 z m 7.3125,-1.0625 -1.29688,0.390625 q 0.0156,-0.921875 0.3125,-1.765625 0.29688,-0.859375 0.85938,-1.515625 0.5625,-0.671875 1.39062,-1.0625 0.84375,-0.390625 1.90625,-0.390625 0.90625,0 1.60938,0.234375 0.70312,0.234375 1.1875,0.734375 0.48437,0.484375 0.73437,1.265625 0.25,0.765625 0.25,1.828125 v 7.40625 h -1.9375 V 63.68811 q 0,-0.953125 -0.29687,-1.46875 -0.29688,-0.53125 -0.82813,-0.75 -0.53125,-0.21875 -1.28125,-0.21875 -0.625,0 -1.125,0.21875 -0.48437,0.21875 -0.8125,0.609375 -0.32812,0.375 -0.5,0.875 -0.17187,0.484375 -0.17187,1.03125 z"
     fill-rule="nonzero"
     id="path5" />
  <path
     fill="#aa79c1"
     d="m 225.90807,92.84259 h 273.6378 v 86.14172 h -273.6378 z"
     fill-rule="evenodd"
     id="path6" />
  <path
     stroke="#ffffff"
     stroke-width="1"
     stroke-linejoin="round"
     stroke-linecap="butt"
     d="m 225.90807,92.84259 h 273.6378 v 86.14172 h -273.6378 z"
     fill-rule="evenodd"
     id="path7" />
  <path
     fill="#ffffff"
     d="m 235.75182,138.02095 v -0.21875 q 0,-1.0625 0.29687,-1.96875 0.3125,-0.92188 0.89063,-1.59375 0.59375,-0.6875 1.42187,-1.0625 0.82813,-0.375 1.85938,-0.375 1.03125,0 1.85937,0.375 0.84375,0.375 1.42188,1.0625 0.59375,0.67187 0.90625,1.59375 0.3125,0.90625 0.3125,1.96875 v 0.21875 q 0,1.0625 -0.3125,1.96875 -0.3125,0.90625 -0.90625,1.59375 -0.57813,0.67187 -1.40625,1.0625 -0.8125,0.375 -1.85938,0.375 -1.03125,0 -1.875,-0.375 -0.82812,-0.39063 -1.42187,-1.0625 -0.57813,-0.6875 -0.89063,-1.59375 -0.29687,-0.90625 -0.29687,-1.96875 z m 1.67187,-0.21875 v 0.21875 q 0,0.73437 0.17188,1.39062 0.1875,0.64063 0.53125,1.14063 0.35937,0.5 0.875,0.79687 0.53125,0.28125 1.23437,0.28125 0.6875,0 1.20313,-0.28125 0.53125,-0.29687 0.875,-0.79687 0.35937,-0.5 0.53125,-1.14063 0.17187,-0.65625 0.17187,-1.39062 v -0.21875 q 0,-0.71875 -0.17187,-1.375 -0.17188,-0.65625 -0.53125,-1.15625 -0.34375,-0.51563 -0.875,-0.79688 -0.51563,-0.29687 -1.21875,-0.29687 -0.6875,0 -1.21875,0.29687 -0.51563,0.28125 -0.875,0.79688 -0.34375,0.5 -0.53125,1.15625 -0.17188,0.65625 -0.17188,1.375 z m 9.40552,-8.96875 h 1.6875 v 12.09375 l -0.14062,1.90625 h -1.54688 z m 8.34375,8.98437 v 0.20313 q 0,1.0625 -0.25,1.98437 -0.25,0.92188 -0.75,1.59375 -0.48437,0.67188 -1.20312,1.04688 -0.70313,0.375 -1.625,0.375 -0.9375,0 -1.65625,-0.32813 -0.70313,-0.32812 -1.1875,-0.9375 -0.46875,-0.60937 -0.76563,-1.46875 -0.28125,-0.875 -0.39062,-1.95312 v -0.84375 q 0.10937,-1.09375 0.39062,-1.95313 0.29688,-0.85937 0.76563,-1.46875 0.48437,-0.625 1.1875,-0.9375 0.70312,-0.32812 1.64062,-0.32812 0.92188,0 1.64063,0.35937 0.71875,0.35938 1.20312,1.03125 0.5,0.65625 0.75,1.57813 0.25,0.92187 0.25,2.04687 z m -1.6875,0.20313 v -0.20313 q 0,-0.73437 -0.14062,-1.375 -0.14063,-0.65625 -0.4375,-1.15625 -0.29688,-0.5 -0.79688,-0.78125 -0.48437,-0.29687 -1.20312,-0.29687 -0.64063,0 -1.10938,0.21875 -0.46875,0.21875 -0.79687,0.59375 -0.32813,0.375 -0.53125,0.84375 -0.20313,0.46875 -0.3125,0.96875 v 2.1875 q 0.15625,0.64062 0.48437,1.23437 0.32813,0.57813 0.89063,0.95313 0.5625,0.375 1.39062,0.375 0.6875,0 1.17188,-0.26563 0.48437,-0.28125 0.78125,-0.76562 0.3125,-0.5 0.45312,-1.14063 0.15625,-0.65625 0.15625,-1.39062 z m 9.55405,2.20312 q 0,-0.375 -0.15625,-0.6875 -0.15625,-0.3125 -0.64062,-0.5625 -0.48438,-0.26562 -1.46875,-0.45312 -0.8125,-0.17188 -1.48438,-0.40625 -0.65625,-0.25 -1.125,-0.57813 -0.45312,-0.34375 -0.70312,-0.79687 -0.23438,-0.45313 -0.23438,-1.0625 0,-0.59375 0.25,-1.10938 0.26563,-0.51562 0.73438,-0.90625 0.48437,-0.40625 1.15625,-0.625 0.6875,-0.23437 1.51562,-0.23437 1.1875,0 2.01563,0.42187 0.84375,0.40625 1.28125,1.10938 0.45312,0.6875 0.45312,1.54687 h -1.6875 q 0,-0.42187 -0.25,-0.79687 -0.23437,-0.39063 -0.70312,-0.64063 -0.45313,-0.26562 -1.10938,-0.26562 -0.70312,0 -1.14062,0.21875 -0.4375,0.21875 -0.64063,0.54687 -0.1875,0.32813 -0.1875,0.6875 0,0.26563 0.0937,0.48438 0.10938,0.21875 0.34375,0.39062 0.25,0.17188 0.6875,0.32813 0.45313,0.15625 1.15625,0.3125 1.20313,0.28125 1.98438,0.67187 0.78125,0.375 1.15625,0.9375 0.39062,0.54688 0.39062,1.34375 0,0.64063 -0.26562,1.1875 -0.26563,0.53125 -0.78125,0.92188 -0.5,0.375 -1.20313,0.59375 -0.6875,0.21875 -1.54687,0.21875 -1.3125,0 -2.21875,-0.46875 -0.89063,-0.46875 -1.35938,-1.20313 -0.46875,-0.73437 -0.46875,-1.5625 h 1.70313 q 0.0312,0.70313 0.39062,1.10938 0.375,0.39062 0.89063,0.5625 0.53125,0.17187 1.0625,0.17187 0.6875,0 1.15625,-0.17187 0.46875,-0.1875 0.70312,-0.5 0.25,-0.32813 0.25,-0.73438 z m 7.98811,2.79688 q -1.03125,0 -1.875,-0.34375 -0.82812,-0.35938 -1.42187,-1 -0.59375,-0.64063 -0.92188,-1.51563 -0.3125,-0.875 -0.3125,-1.90625 v -0.39062 q 0,-1.20313 0.35938,-2.14063 0.35937,-0.9375 0.96875,-1.59375 0.60937,-0.65625 1.375,-0.98437 0.78125,-0.34375 1.60937,-0.34375 1.0625,0 1.82813,0.35937 0.76562,0.35938 1.25,1.01563 0.5,0.65625 0.73437,1.53125 0.23438,0.875 0.23438,1.92187 v 0.75 h -7.35938 v -1.375 h 5.6875 v -0.125 q -0.0469,-0.65625 -0.28125,-1.28125 -0.23437,-0.625 -0.73437,-1.01562 -0.5,-0.40625 -1.35938,-0.40625 -0.57812,0 -1.0625,0.25 -0.48437,0.23437 -0.82812,0.71875 -0.34375,0.46875 -0.53125,1.15625 -0.1875,0.67187 -0.1875,1.5625 v 0.39062 q 0,0.70313 0.1875,1.3125 0.20312,0.60938 0.57812,1.07813 0.375,0.46875 0.90625,0.73437 0.54688,0.26563 1.25,0.26563 0.89063,0 1.5,-0.35938 0.625,-0.375 1.09375,-0.98437 l 1.01563,0.8125 q -0.3125,0.48437 -0.8125,0.92187 -0.48438,0.4375 -1.20313,0.71875 -0.71875,0.26563 -1.6875,0.26563 z m 7.48667,-8.5 v 8.3125 h -1.6875 v -9.85938 h 1.64062 z m 3.07812,-1.59375 v 1.5625 q -0.21875,-0.0469 -0.40625,-0.0625 -0.1875,-0.0156 -0.42187,-0.0156 -0.57813,0 -1.03125,0.1875 -0.4375,0.1875 -0.75,0.51563 -0.3125,0.32812 -0.5,0.78125 -0.17188,0.4375 -0.21875,0.98437 l -0.48438,0.26563 q 0,-0.89063 0.17188,-1.67188 0.1875,-0.78125 0.5625,-1.39062 0.375,-0.60938 0.95312,-0.9375 0.57813,-0.34375 1.375,-0.34375 0.1875,0 0.42188,0.0469 0.23437,0.0312 0.32812,0.0781 z m 4.72043,8.39062 2.70313,-8.34375 h 1.71875 l -3.54688,9.85938 h -1.125 z m -2.25,-8.34375 2.78125,8.39063 0.1875,1.46875 h -1.125 l -3.57812,-9.85938 z m 12.26189,10.04688 q -1.03125,0 -1.875,-0.34375 -0.82813,-0.35938 -1.42188,-1 -0.59375,-0.64063 -0.92187,-1.51563 -0.3125,-0.875 -0.3125,-1.90625 v -0.39062 q 0,-1.20313 0.35937,-2.14063 0.35938,-0.9375 0.96875,-1.59375 0.60938,-0.65625 1.375,-0.98437 0.78125,-0.34375 1.60938,-0.34375 1.0625,0 1.82812,0.35937 0.76563,0.35938 1.25,1.01563 0.5,0.65625 0.73438,1.53125 0.23437,0.875 0.23437,1.92187 v 0.75 h -7.35937 v -1.375 h 5.6875 v -0.125 q -0.0469,-0.65625 -0.28125,-1.28125 -0.23438,-0.625 -0.73438,-1.01562 -0.5,-0.40625 -1.35937,-0.40625 -0.57813,0 -1.0625,0.25 -0.48438,0.23437 -0.82813,0.71875 -0.34375,0.46875 -0.53125,1.15625 -0.1875,0.67187 -0.1875,1.5625 v 0.39062 q 0,0.70313 0.1875,1.3125 0.20313,0.60938 0.57813,1.07813 0.375,0.46875 0.90625,0.73437 0.54687,0.26563 1.25,0.26563 0.89062,0 1.5,-0.35938 0.625,-0.375 1.09375,-0.98437 l 1.01562,0.8125 q -0.3125,0.48437 -0.8125,0.92187 -0.48437,0.4375 -1.20312,0.71875 -0.71875,0.26563 -1.6875,0.26563 z m 12.01791,-2.09375 v -12.09375 h 1.6875 v 14 h -1.54687 z m -6.64062,-2.90625 v -0.20313 q 0,-1.125 0.28125,-2.04687 0.28125,-0.92188 0.79687,-1.57813 0.51563,-0.67187 1.21875,-1.03125 0.71875,-0.35937 1.60938,-0.35937 0.92187,0 1.625,0.32812 0.70312,0.3125 1.1875,0.9375 0.48437,0.60938 0.76562,1.46875 0.28125,0.85938 0.39063,1.95313 v 0.84375 q -0.0937,1.07812 -0.39063,1.95312 -0.28125,0.85938 -0.76562,1.46875 -0.48438,0.60938 -1.1875,0.9375 -0.70313,0.32813 -1.64063,0.32813 -0.875,0 -1.59375,-0.375 -0.70312,-0.375 -1.21875,-1.04688 -0.51562,-0.67187 -0.79687,-1.59375 -0.28125,-0.92187 -0.28125,-1.98437 z m 1.70312,-0.20313 v 0.20313 q 0,0.73437 0.14063,1.39062 0.15625,0.64063 0.46875,1.14063 0.32812,0.48437 0.8125,0.76562 0.5,0.26563 1.1875,0.26563 0.82812,0 1.375,-0.34375 0.54687,-0.35938 0.875,-0.9375 0.32812,-0.59375 0.5,-1.28125 v -2.1875 q -0.10938,-0.5 -0.3125,-0.96875 -0.20313,-0.46875 -0.53125,-0.84375 -0.3125,-0.375 -0.78125,-0.59375 -0.46875,-0.21875 -1.10938,-0.21875 -0.70312,0 -1.20312,0.29687 -0.48438,0.28125 -0.8125,0.78125 -0.3125,0.5 -0.46875,1.15625 -0.14063,0.64063 -0.14063,1.375 z"
     fill-rule="nonzero"
     id="path8" />
  <path
     fill="#60ad51"
     d="m 225.90807,190.88721 h 273.6378 v 86.14174 h -273.6378 z"
     fill-rule="evenodd"
     id="path9" />
  <path
     stroke="#ffffff"
     stroke-width="1"
     stroke-linejoin="round"
     stroke-linecap="butt"
     d="m 225.90807,190.88721 h 273.6378 v 86.14174 h -273.6378 z"
     fill-rule="evenodd"
     id="path10" />
  <path
     fill="#ffffff"
     d="m 238.01744,231.01869 v 9.85938 h -1.6875 v -9.85938 z m -1.8125,-2.60937 q 0,-0.40625 0.25,-0.6875 0.25,-0.29688 0.73437,-0.29688 0.48438,0 0.73438,0.29688 0.26562,0.28125 0.26562,0.6875 0,0.39062 -0.26562,0.67187 -0.25,0.26563 -0.73438,0.26563 -0.48437,0 -0.73437,-0.26563 -0.25,-0.28125 -0.25,-0.67187 z m 6.19278,4.57812 v 7.89063 h -1.6875 v -9.85938 h 1.60937 z m -0.34375,2.59375 -0.78125,-0.0312 q 0.0156,-1.01562 0.26562,-1.875 0.25,-0.85937 0.75,-1.5 0.51563,-0.64062 1.25,-0.98437 0.75,-0.34375 1.73438,-0.34375 0.6875,0 1.26562,0.20312 0.59375,0.1875 1.01563,0.60938 0.4375,0.40625 0.67187,1.0625 0.23438,0.65625 0.23438,1.59375 v 6.5625 h -1.6875 v -6.48438 q 0,-0.78125 -0.26563,-1.23437 -0.25,-0.46875 -0.73437,-0.6875 -0.46875,-0.21875 -1.09375,-0.21875 -0.75,0 -1.25,0.26562 -0.5,0.26563 -0.8125,0.73438 -0.29688,0.46875 -0.4375,1.0625 -0.125,0.59375 -0.125,1.26562 z m 6.39062,-0.9375 -1.125,0.34375 q 0,-0.8125 0.26563,-1.54687 0.26562,-0.75 0.75,-1.32813 0.5,-0.59375 1.21875,-0.92187 0.73437,-0.34375 1.67187,-0.34375 0.79688,0 1.40625,0.20312 0.625,0.20313 1.04688,0.64063 0.42187,0.4375 0.64062,1.10937 0.21875,0.67188 0.21875,1.59375 v 6.48438 h -1.6875 v -6.5 q 0,-0.82813 -0.26562,-1.28125 -0.26563,-0.46875 -0.73438,-0.65625 -0.46875,-0.1875 -1.10937,-0.1875 -0.5625,0 -0.98438,0.20312 -0.42187,0.1875 -0.71875,0.53125 -0.29687,0.32813 -0.45312,0.75 -0.14063,0.42188 -0.14063,0.90625 z m 10.32941,-1.73437 v 11.76562 h -1.6875 v -13.65625 h 1.54688 z m 6.64063,2.95312 v 0.20313 q 0,1.0625 -0.26563,1.98437 -0.25,0.92188 -0.73437,1.59375 -0.48438,0.67188 -1.20313,1.04688 -0.70312,0.375 -1.625,0.375 -0.9375,0 -1.65625,-0.3125 -0.71875,-0.3125 -1.21875,-0.90625 -0.5,-0.59375 -0.79687,-1.42188 -0.29688,-0.82812 -0.40625,-1.85937 v -1.03125 q 0.10937,-1.09375 0.40625,-1.95313 0.29687,-0.85937 0.79687,-1.46875 0.5,-0.625 1.20313,-0.9375 0.71875,-0.32812 1.64062,-0.32812 0.9375,0 1.65625,0.35937 0.71875,0.35938 1.20313,1.03125 0.5,0.65625 0.75,1.57813 0.25,0.92187 0.25,2.04687 z m -1.6875,0.20313 v -0.20313 q 0,-0.73437 -0.15625,-1.375 -0.15625,-0.65625 -0.48438,-1.15625 -0.32812,-0.5 -0.82812,-0.78125 -0.5,-0.29687 -1.1875,-0.29687 -0.64063,0 -1.10938,0.21875 -0.46875,0.21875 -0.79687,0.59375 -0.32813,0.375 -0.53125,0.84375 -0.20313,0.46875 -0.3125,0.96875 v 2.35937 q 0.1875,0.64063 0.51562,1.20313 0.32813,0.54687 0.875,0.89062 0.54688,0.34375 1.375,0.34375 0.6875,0 1.17188,-0.28125 0.5,-0.29687 0.82812,-0.79687 0.32813,-0.5 0.48438,-1.14063 0.15625,-0.65625 0.15625,-1.39062 z m 5.66342,-9.1875 v 14 h -1.6875 v -14 z m 4.53653,4.14062 v 9.85938 h -1.6875 v -9.85938 z m -1.8125,-2.60937 q 0,-0.40625 0.25,-0.6875 0.25,-0.29688 0.73437,-0.29688 0.48438,0 0.73438,0.29688 0.26562,0.28125 0.26562,0.6875 0,0.39062 -0.26562,0.67187 -0.25,0.26563 -0.73438,0.26563 -0.48437,0 -0.73437,-0.26563 -0.25,-0.28125 -0.25,-0.67187 z m 8.61465,12.65625 q -1.03125,0 -1.875,-0.34375 -0.82812,-0.35938 -1.42187,-1 -0.59375,-0.64063 -0.92188,-1.51563 -0.3125,-0.875 -0.3125,-1.90625 v -0.39062 q 0,-1.20313 0.35938,-2.14063 0.35937,-0.9375 0.96875,-1.59375 0.60937,-0.65625 1.375,-0.98437 0.78125,-0.34375 1.60937,-0.34375 1.0625,0 1.82813,0.35937 0.76562,0.35938 1.25,1.01563 0.5,0.65625 0.73437,1.53125 0.23438,0.875 0.23438,1.92187 v 0.75 h -7.35938 v -1.375 h 5.6875 v -0.125 q -0.0469,-0.65625 -0.28125,-1.28125 -0.23437,-0.625 -0.73437,-1.01562 -0.5,-0.40625 -1.35938,-0.40625 -0.57812,0 -1.0625,0.25 -0.48437,0.23437 -0.82812,0.71875 -0.34375,0.46875 -0.53125,1.15625 -0.1875,0.67187 -0.1875,1.5625 v 0.39062 q 0,0.70313 0.1875,1.3125 0.20312,0.60938 0.57812,1.07813 0.375,0.46875 0.90625,0.73437 0.54688,0.26563 1.25,0.26563 0.89063,0 1.5,-0.35938 0.625,-0.375 1.09375,-0.98437 l 1.01563,0.8125 q -0.3125,0.48437 -0.8125,0.92187 -0.48438,0.4375 -1.20313,0.71875 -0.71875,0.26563 -1.6875,0.26563 z m 12.01792,-2.09375 v -12.09375 h 1.6875 v 14 h -1.54688 z m -6.64063,-2.90625 v -0.20313 q 0,-1.125 0.28125,-2.04687 0.28125,-0.92188 0.79688,-1.57813 0.51562,-0.67187 1.21875,-1.03125 0.71875,-0.35937 1.60937,-0.35937 0.92188,0 1.625,0.32812 0.70313,0.3125 1.1875,0.9375 0.48438,0.60938 0.76563,1.46875 0.28125,0.85938 0.39062,1.95313 v 0.84375 q -0.0937,1.07812 -0.39062,1.95312 -0.28125,0.85938 -0.76563,1.46875 -0.48437,0.60938 -1.1875,0.9375 -0.70312,0.32813 -1.64062,0.32813 -0.875,0 -1.59375,-0.375 -0.70313,-0.375 -1.21875,-1.04688 -0.51563,-0.67187 -0.79688,-1.59375 -0.28125,-0.92187 -0.28125,-1.98437 z m 1.70313,-0.20313 v 0.20313 q 0,0.73437 0.14062,1.39062 0.15625,0.64063 0.46875,1.14063 0.32813,0.48437 0.8125,0.76562 0.5,0.26563 1.1875,0.26563 0.82813,0 1.375,-0.34375 0.54688,-0.35938 0.875,-0.9375 0.32813,-0.59375 0.5,-1.28125 v -2.1875 q -0.10937,-0.5 -0.3125,-0.96875 -0.20312,-0.46875 -0.53125,-0.84375 -0.3125,-0.375 -0.78125,-0.59375 -0.46875,-0.21875 -1.10937,-0.21875 -0.70313,0 -1.20313,0.29687 -0.48437,0.28125 -0.8125,0.78125 -0.3125,0.5 -0.46875,1.15625 -0.14062,0.64063 -0.14062,1.375 z"
     fill-rule="nonzero"
     id="path11" />
  <path
     fill="#4063d8"
     d="m 517.52749,92.84259 h 273.63782 v 183.2126 H 517.52749 Z"
     fill-rule="evenodd"
     id="path12" />
  <path
     stroke="#ffffff"
     stroke-width="1"
     stroke-linejoin="round"
     stroke-linecap="butt"
     d="m 517.52749,92.84259 h 273.63782 v 183.2126 H 517.52749 Z"
     fill-rule="evenodd"
     id="path13" />
  <path
     fill="#ffffff"
     d="m 529.63686,105.76259 v 14 h -1.6875 v -14 z m 2.2709,9.1875 v -0.21875 q 0,-1.0625 0.29688,-1.96875 0.3125,-0.92187 0.89062,-1.59375 0.59375,-0.6875 1.42188,-1.0625 0.82812,-0.375 1.85937,-0.375 1.03125,0 1.85938,0.375 0.84375,0.375 1.42187,1.0625 0.59375,0.67188 0.90625,1.59375 0.3125,0.90625 0.3125,1.96875 v 0.21875 q 0,1.0625 -0.3125,1.96875 -0.3125,0.90625 -0.90625,1.59375 -0.57812,0.67187 -1.40625,1.0625 -0.8125,0.375 -1.85937,0.375 -1.03125,0 -1.875,-0.375 -0.82813,-0.39063 -1.42188,-1.0625 -0.57812,-0.6875 -0.89062,-1.59375 -0.29688,-0.90625 -0.29688,-1.96875 z m 1.67188,-0.21875 v 0.21875 q 0,0.73437 0.17187,1.39062 0.1875,0.64063 0.53125,1.14063 0.35938,0.5 0.875,0.79687 0.53125,0.28125 1.23438,0.28125 0.6875,0 1.20312,-0.28125 0.53125,-0.29687 0.875,-0.79687 0.35938,-0.5 0.53125,-1.14063 0.17188,-0.65625 0.17188,-1.39062 v -0.21875 q 0,-0.71875 -0.17188,-1.375 -0.17187,-0.65625 -0.53125,-1.15625 -0.34375,-0.51562 -0.875,-0.79687 -0.51562,-0.29688 -1.21875,-0.29688 -0.6875,0 -1.21875,0.29688 -0.51562,0.28125 -0.875,0.79687 -0.34375,0.5 -0.53125,1.15625 -0.17187,0.65625 -0.17187,1.375 z m 15.13989,2.42187 q 0,-0.375 -0.15625,-0.6875 -0.15625,-0.3125 -0.64062,-0.5625 -0.48438,-0.26562 -1.46875,-0.45312 -0.8125,-0.17188 -1.48438,-0.40625 -0.65625,-0.25 -1.125,-0.57812 -0.45312,-0.34375 -0.70312,-0.79688 -0.23438,-0.45312 -0.23438,-1.0625 0,-0.59375 0.25,-1.10937 0.26563,-0.51563 0.73438,-0.90625 0.48437,-0.40625 1.15625,-0.625 0.6875,-0.23438 1.51562,-0.23438 1.1875,0 2.01563,0.42188 0.84375,0.40625 1.28125,1.10937 0.45312,0.6875 0.45312,1.54688 h -1.6875 q 0,-0.42188 -0.25,-0.79688 -0.23437,-0.39062 -0.70312,-0.64062 -0.45313,-0.26563 -1.10938,-0.26563 -0.70312,0 -1.14062,0.21875 -0.4375,0.21875 -0.64063,0.54688 -0.1875,0.32812 -0.1875,0.6875 0,0.26562 0.0937,0.48437 0.10938,0.21875 0.34375,0.39063 0.25,0.17187 0.6875,0.32812 0.45313,0.15625 1.15625,0.3125 1.20313,0.28125 1.98438,0.67187 0.78125,0.375 1.15625,0.9375 0.39062,0.54688 0.39062,1.34375 0,0.64063 -0.26562,1.1875 -0.26563,0.53125 -0.78125,0.92188 -0.5,0.375 -1.20313,0.59375 -0.6875,0.21875 -1.54687,0.21875 -1.3125,0 -2.21875,-0.46875 -0.89063,-0.46875 -1.35938,-1.20313 -0.46875,-0.73437 -0.46875,-1.5625 h 1.70313 q 0.0312,0.70313 0.39062,1.10938 0.375,0.39062 0.89063,0.5625 0.53125,0.17187 1.0625,0.17187 0.6875,0 1.15625,-0.17187 0.46875,-0.1875 0.70312,-0.5 0.25,-0.32813 0.25,-0.73438 z m 9.62876,0 q 0,-0.375 -0.15625,-0.6875 -0.15625,-0.3125 -0.64063,-0.5625 -0.48437,-0.26562 -1.46875,-0.45312 -0.8125,-0.17188 -1.48437,-0.40625 -0.65625,-0.25 -1.125,-0.57812 -0.45313,-0.34375 -0.70313,-0.79688 -0.23437,-0.45312 -0.23437,-1.0625 0,-0.59375 0.25,-1.10937 0.26562,-0.51563 0.73437,-0.90625 0.48438,-0.40625 1.15625,-0.625 0.6875,-0.23438 1.51563,-0.23438 1.1875,0 2.01562,0.42188 0.84375,0.40625 1.28125,1.10937 0.45313,0.6875 0.45313,1.54688 h -1.6875 q 0,-0.42188 -0.25,-0.79688 -0.23438,-0.39062 -0.70313,-0.64062 -0.45312,-0.26563 -1.10937,-0.26563 -0.70313,0 -1.14063,0.21875 -0.4375,0.21875 -0.64062,0.54688 -0.1875,0.32812 -0.1875,0.6875 0,0.26562 0.0937,0.48437 0.10937,0.21875 0.34375,0.39063 0.25,0.17187 0.6875,0.32812 0.45312,0.15625 1.15625,0.3125 1.20312,0.28125 1.98437,0.67187 0.78125,0.375 1.15625,0.9375 0.39063,0.54688 0.39063,1.34375 0,0.64063 -0.26563,1.1875 -0.26562,0.53125 -0.78125,0.92188 -0.5,0.375 -1.20312,0.59375 -0.6875,0.21875 -1.54688,0.21875 -1.3125,0 -2.21875,-0.46875 -0.89062,-0.46875 -1.35937,-1.20313 -0.46875,-0.73437 -0.46875,-1.5625 h 1.70312 q 0.0312,0.70313 0.39063,1.10938 0.375,0.39062 0.89062,0.5625 0.53125,0.17187 1.0625,0.17187 0.6875,0 1.15625,-0.17187 0.46875,-0.1875 0.70313,-0.5 0.25,-0.32813 0.25,-0.73438 z"
     fill-rule="nonzero"
     id="path14" />
  <path
     fill="#d5635c"
     d="m 225.90807,311.33339 h 565.2599 v 67.2756 h -565.2599 z"
     fill-rule="evenodd"
     id="path15" />
  <path
     stroke="#ffffff"
     stroke-width="1"
     stroke-linejoin="round"
     stroke-linecap="butt"
     d="m 225.90807,311.33339 h 565.2599 v 67.2756 h -565.2599 z"
     fill-rule="evenodd"
     id="path16" />
  <path
     fill="#ffffff"
     d="m 235.75182,347.07869 v -0.21875 q 0,-1.0625 0.29687,-1.96875 0.3125,-0.92187 0.89063,-1.59375 0.59375,-0.6875 1.42187,-1.0625 0.82813,-0.375 1.85938,-0.375 1.03125,0 1.85937,0.375 0.84375,0.375 1.42188,1.0625 0.59375,0.67188 0.90625,1.59375 0.3125,0.90625 0.3125,1.96875 v 0.21875 q 0,1.0625 -0.3125,1.96875 -0.3125,0.90625 -0.90625,1.59375 -0.57813,0.67188 -1.40625,1.0625 -0.8125,0.375 -1.85938,0.375 -1.03125,0 -1.875,-0.375 -0.82812,-0.39062 -1.42187,-1.0625 -0.57813,-0.6875 -0.89063,-1.59375 -0.29687,-0.90625 -0.29687,-1.96875 z m 1.67187,-0.21875 v 0.21875 q 0,0.73438 0.17188,1.39063 0.1875,0.64062 0.53125,1.14062 0.35937,0.5 0.875,0.79688 0.53125,0.28125 1.23437,0.28125 0.6875,0 1.20313,-0.28125 0.53125,-0.29688 0.875,-0.79688 0.35937,-0.5 0.53125,-1.14062 0.17187,-0.65625 0.17187,-1.39063 v -0.21875 q 0,-0.71875 -0.17187,-1.375 -0.17188,-0.65625 -0.53125,-1.15625 -0.34375,-0.51562 -0.875,-0.79687 -0.51563,-0.29688 -1.21875,-0.29688 -0.6875,0 -1.21875,0.29688 -0.51563,0.28125 -0.875,0.79687 -0.34375,0.5 -0.53125,1.15625 -0.17188,0.65625 -0.17188,1.375 z m 11.09302,-2.9375 v 11.76563 h -1.6875 v -13.65625 h 1.54688 z m 6.64063,2.95313 v 0.20312 q 0,1.0625 -0.26563,1.98438 -0.25,0.92187 -0.73437,1.59375 -0.48438,0.67187 -1.20313,1.04687 -0.70312,0.375 -1.625,0.375 -0.9375,0 -1.65625,-0.3125 -0.71875,-0.3125 -1.21875,-0.90625 -0.5,-0.59375 -0.79687,-1.42187 -0.29688,-0.82813 -0.40625,-1.85938 v -1.03125 q 0.10937,-1.09375 0.40625,-1.95312 0.29687,-0.85938 0.79687,-1.46875 0.5,-0.625 1.20313,-0.9375 0.71875,-0.32813 1.64062,-0.32813 0.9375,0 1.65625,0.35938 0.71875,0.35937 1.20313,1.03125 0.5,0.65625 0.75,1.57812 0.25,0.92188 0.25,2.04688 z m -1.6875,0.20312 v -0.20312 q 0,-0.73438 -0.15625,-1.375 -0.15625,-0.65625 -0.48438,-1.15625 -0.32812,-0.5 -0.82812,-0.78125 -0.5,-0.29688 -1.1875,-0.29688 -0.64063,0 -1.10938,0.21875 -0.46875,0.21875 -0.79687,0.59375 -0.32813,0.375 -0.53125,0.84375 -0.20313,0.46875 -0.3125,0.96875 v 2.35938 q 0.1875,0.64062 0.51562,1.20312 0.32813,0.54688 0.875,0.89063 0.54688,0.34375 1.375,0.34375 0.6875,0 1.17188,-0.28125 0.5,-0.29688 0.82812,-0.79688 0.32813,-0.5 0.48438,-1.14062 0.15625,-0.65625 0.15625,-1.39063 z m 7.96029,-5.04687 v 1.29687 h -5.32812 v -1.29687 z m -3.51562,-2.39063 h 1.6875 v 9.8125 q 0,0.5 0.14062,0.75 0.15625,0.25 0.40625,0.34375 0.25,0.0781 0.53125,0.0781 0.20313,0 0.4375,-0.0312 0.23438,-0.0469 0.35938,-0.0781 v 1.375 q -0.20313,0.0625 -0.53125,0.125 -0.3125,0.0625 -0.76563,0.0625 -0.625,0 -1.14062,-0.25 -0.51563,-0.25 -0.82813,-0.82812 -0.29687,-0.57813 -0.29687,-1.5625 z m 7.32211,2.39063 v 9.85937 h -1.6875 v -9.85937 z m -1.8125,-2.60938 q 0,-0.40625 0.25,-0.6875 0.25,-0.29687 0.73438,-0.29687 0.48437,0 0.73437,0.29687 0.26563,0.28125 0.26563,0.6875 0,0.39063 -0.26563,0.67188 -0.25,0.26562 -0.73437,0.26562 -0.48438,0 -0.73438,-0.26562 -0.25,-0.28125 -0.25,-0.67188 z m 6.19278,4.57813 v 7.89062 h -1.6875 v -9.85937 h 1.60938 z m -0.34375,2.59375 -0.78125,-0.0312 q 0.0156,-1.01563 0.26563,-1.875 0.25,-0.85938 0.75,-1.5 0.51562,-0.64063 1.25,-0.98438 0.75,-0.34375 1.73437,-0.34375 0.6875,0 1.26563,0.20313 0.59375,0.1875 1.01562,0.60937 0.4375,0.40625 0.67188,1.0625 0.23437,0.65625 0.23437,1.59375 v 6.5625 h -1.6875 v -6.48437 q 0,-0.78125 -0.26562,-1.23438 -0.25,-0.46875 -0.73438,-0.6875 -0.46875,-0.21875 -1.09375,-0.21875 -0.75,0 -1.25,0.26563 -0.5,0.26562 -0.8125,0.73437 -0.29687,0.46875 -0.4375,1.0625 -0.125,0.59375 -0.125,1.26563 z m 6.39063,-0.9375 -1.125,0.34375 q 0,-0.8125 0.26562,-1.54688 0.26563,-0.75 0.75,-1.32812 0.5,-0.59375 1.21875,-0.92188 0.73438,-0.34375 1.67188,-0.34375 0.79687,0 1.40625,0.20313 0.625,0.20312 1.04687,0.64062 0.42188,0.4375 0.64063,1.10938 0.21875,0.67187 0.21875,1.59375 v 6.48437 h -1.6875 v -6.5 q 0,-0.82812 -0.26563,-1.28125 -0.26562,-0.46875 -0.73437,-0.65625 -0.46875,-0.1875 -1.10938,-0.1875 -0.5625,0 -0.98437,0.20313 -0.42188,0.1875 -0.71875,0.53125 -0.29688,0.32812 -0.45313,0.75 -0.14062,0.42187 -0.14062,0.90625 z m 10.47003,-3.625 v 9.85937 h -1.6875 v -9.85937 z m -1.8125,-2.60938 q 0,-0.40625 0.25,-0.6875 0.25,-0.29687 0.73437,-0.29687 0.48438,0 0.73438,0.29687 0.26562,0.28125 0.26562,0.6875 0,0.39063 -0.26562,0.67188 -0.25,0.26562 -0.73438,0.26562 -0.48437,0 -0.73437,-0.26562 -0.25,-0.28125 -0.25,-0.67188 z m 11.86465,11.07813 v 1.39062 h -7.17187 v -1.39062 z m -0.26562,-7.26563 -6.51563,8.65625 h -1.03125 v -1.23437 l 6.46875,-8.625 h 1.07813 z m -0.75,-1.20312 v 1.39062 h -6.71875 v -1.39062 z m 6.87505,10.04687 q -1.03125,0 -1.875,-0.34375 -0.82813,-0.35937 -1.42188,-1 -0.59375,-0.64062 -0.92187,-1.51562 -0.3125,-0.875 -0.3125,-1.90625 v -0.39063 q 0,-1.20312 0.35937,-2.14062 0.35938,-0.9375 0.96875,-1.59375 0.60938,-0.65625 1.375,-0.98438 0.78125,-0.34375 1.60938,-0.34375 1.0625,0 1.82812,0.35938 0.76563,0.35937 1.25,1.01562 0.5,0.65625 0.73438,1.53125 0.23437,0.875 0.23437,1.92188 v 0.75 h -7.35937 v -1.375 h 5.6875 v -0.125 q -0.0469,-0.65625 -0.28125,-1.28125 -0.23438,-0.625 -0.73438,-1.01563 -0.5,-0.40625 -1.35937,-0.40625 -0.57813,0 -1.0625,0.25 -0.48438,0.23438 -0.82813,0.71875 -0.34375,0.46875 -0.53125,1.15625 -0.1875,0.67188 -0.1875,1.5625 v 0.39063 q 0,0.70312 0.1875,1.3125 0.20313,0.60937 0.57813,1.07812 0.375,0.46875 0.90625,0.73438 0.54687,0.26562 1.25,0.26562 0.89062,0 1.5,-0.35937 0.625,-0.375 1.09375,-0.98438 l 1.01562,0.8125 q -0.3125,0.48438 -0.8125,0.92188 -0.48437,0.4375 -1.20312,0.71875 -0.71875,0.26562 -1.6875,0.26562 z m 7.48666,-8.5 v 8.3125 h -1.6875 v -9.85937 h 1.64062 z m 3.07812,-1.59375 v 1.5625 q -0.21875,-0.0469 -0.40625,-0.0625 -0.1875,-0.0156 -0.42187,-0.0156 -0.57813,0 -1.03125,0.1875 -0.4375,0.1875 -0.75,0.51562 -0.3125,0.32813 -0.5,0.78125 -0.17188,0.4375 -0.21875,0.98438 l -0.48438,0.26562 q 0,-0.89062 0.17188,-1.67187 0.1875,-0.78125 0.5625,-1.39063 0.375,-0.60937 0.95312,-0.9375 0.57813,-0.34375 1.375,-0.34375 0.1875,0 0.42188,0.0469 0.23437,0.0312 0.32812,0.0781 z"
     fill-rule="nonzero"
     id="path17" />
  <path
     fill="#000000"
     fill-opacity="0"
     d="m 544.25191,146.29666 h 220.18896 v 41.32283 H 544.25191 Z"
     fill-rule="evenodd"
     id="path18" />
  <path
     stroke="#ffffff"
     stroke-width="1"
     stroke-linejoin="round"
     stroke-linecap="butt"
     d="m 544.25191,146.29666 h 220.18896 v 41.32283 H 544.25191 Z"
     fill-rule="evenodd"
     id="path19" />
  <path
     fill="#ffffff"
     d="m 555.92379,160.81807 v 12 h -1.45313 v -12 z m 1.9375,7.85937 v -0.17187 q 0,-0.92188 0.26562,-1.70313 0.26563,-0.78125 0.76563,-1.35937 0.5,-0.59375 1.20312,-0.90625 0.71875,-0.32813 1.60938,-0.32813 0.89062,0 1.59375,0.32813 0.71875,0.3125 1.21875,0.90625 0.51562,0.57812 0.78125,1.35937 0.26562,0.78125 0.26562,1.70313 v 0.17187 q 0,0.92188 -0.26562,1.70313 -0.26563,0.78125 -0.78125,1.35937 -0.5,0.57813 -1.20313,0.90625 -0.70312,0.32813 -1.59375,0.32813 -0.89062,0 -1.60937,-0.32813 -0.70313,-0.32812 -1.21875,-0.90625 -0.5,-0.57812 -0.76563,-1.35937 -0.26562,-0.78125 -0.26562,-1.70313 z m 1.45312,-0.17187 v 0.17187 q 0,0.64063 0.14063,1.20313 0.15625,0.54687 0.45312,0.98437 0.29688,0.42188 0.75,0.67188 0.45313,0.25 1.0625,0.25 0.59375,0 1.03125,-0.25 0.45313,-0.25 0.75,-0.67188 0.29688,-0.4375 0.45313,-0.98437 0.15625,-0.5625 0.15625,-1.20313 v -0.17187 q 0,-0.625 -0.15625,-1.1875 -0.15625,-0.5625 -0.45313,-0.98438 -0.29687,-0.4375 -0.75,-0.6875 -0.45312,-0.25 -1.04687,-0.25 -0.59375,0 -1.04688,0.25 -0.45312,0.25 -0.75,0.6875 -0.29687,0.42188 -0.45312,0.98438 -0.14063,0.5625 -0.14063,1.1875 z m 12.98438,2.0625 q 0,-0.3125 -0.14063,-0.57813 -0.14062,-0.26562 -0.5625,-0.48437 -0.40625,-0.23438 -1.25,-0.39063 -0.70312,-0.15625 -1.26562,-0.35937 -0.5625,-0.20313 -0.96875,-0.48438 -0.39063,-0.29687 -0.60938,-0.6875 -0.20312,-0.39062 -0.20312,-0.90625 0,-0.5 0.21875,-0.9375 0.23437,-0.45312 0.64062,-0.79687 0.40625,-0.34375 0.98438,-0.53125 0.57812,-0.20313 1.29687,-0.20313 1.01563,0 1.73438,0.35938 0.71875,0.35937 1.09375,0.95312 0.39062,0.59375 0.39062,1.32813 h -1.45312 q 0,-0.35938 -0.20313,-0.6875 -0.20312,-0.32813 -0.60937,-0.54688 -0.39063,-0.21875 -0.95313,-0.21875 -0.60937,0 -0.98437,0.1875 -0.35938,0.17188 -0.53125,0.45313 -0.17188,0.28125 -0.17188,0.59375 0,0.23437 0.0781,0.42187 0.0937,0.1875 0.29687,0.34375 0.21875,0.14063 0.59375,0.28125 0.39063,0.125 0.98438,0.26563 1.03125,0.23437 1.70312,0.5625 0.67188,0.32812 1,0.8125 0.32813,0.46875 0.32813,1.14062 0,0.5625 -0.23438,1.03125 -0.21875,0.45313 -0.65625,0.78125 -0.4375,0.32813 -1.03125,0.51563 -0.59375,0.1875 -1.34375,0.1875 -1.10937,0 -1.89062,-0.39063 -0.76563,-0.40625 -1.17188,-1.03125 -0.39062,-0.64062 -0.39062,-1.34375 h 1.45312 q 0.0312,0.59375 0.34375,0.9375 0.3125,0.34375 0.76563,0.5 0.45312,0.14063 0.89062,0.14063 0.59375,0 1,-0.15625 0.40625,-0.15625 0.60938,-0.42188 0.21875,-0.28125 0.21875,-0.64062 z m 8.25781,0 q 0,-0.3125 -0.14062,-0.57813 -0.14063,-0.26562 -0.5625,-0.48437 -0.40625,-0.23438 -1.25,-0.39063 -0.70313,-0.15625 -1.26563,-0.35937 -0.5625,-0.20313 -0.96875,-0.48438 -0.39062,-0.29687 -0.60937,-0.6875 -0.20313,-0.39062 -0.20313,-0.90625 0,-0.5 0.21875,-0.9375 0.23438,-0.45312 0.64063,-0.79687 0.40625,-0.34375 0.98437,-0.53125 0.57813,-0.20313 1.29688,-0.20313 1.01562,0 1.73437,0.35938 0.71875,0.35937 1.09375,0.95312 0.39063,0.59375 0.39063,1.32813 h -1.45313 q 0,-0.35938 -0.20312,-0.6875 -0.20313,-0.32813 -0.60938,-0.54688 -0.39062,-0.21875 -0.95312,-0.21875 -0.60938,0 -0.98438,0.1875 -0.35937,0.17188 -0.53125,0.45313 -0.17187,0.28125 -0.17187,0.59375 0,0.23437 0.0781,0.42187 0.0937,0.1875 0.29688,0.34375 0.21875,0.14063 0.59375,0.28125 0.39062,0.125 0.98437,0.26563 1.03125,0.23437 1.70313,0.5625 0.67187,0.32812 1,0.8125 0.32812,0.46875 0.32812,1.14062 0,0.5625 -0.23437,1.03125 -0.21875,0.45313 -0.65625,0.78125 -0.4375,0.32813 -1.03125,0.51563 -0.59375,0.1875 -1.34375,0.1875 -1.10938,0 -1.89063,-0.39063 -0.76562,-0.40625 -1.17187,-1.03125 -0.39063,-0.64062 -0.39063,-1.34375 h 1.45313 q 0.0312,0.59375 0.34375,0.9375 0.3125,0.34375 0.76562,0.5 0.45313,0.14063 0.89063,0.14063 0.59375,0 1,-0.15625 0.40625,-0.15625 0.60937,-0.42188 0.21875,-0.28125 0.21875,-0.64062 z m 9.46094,2.25 h -1.45313 v -9.34375 q 0,-0.92188 0.32813,-1.54688 0.34375,-0.625 0.96875,-0.95312 0.625,-0.32813 1.48437,-0.32813 0.25,0 0.5,0.0312 0.25,0.0312 0.5,0.0937 l -0.0781,1.1875 q -0.17188,-0.0469 -0.375,-0.0625 -0.20313,-0.0156 -0.40625,-0.0156 -0.46875,0 -0.79688,0.1875 -0.32812,0.1875 -0.5,0.54687 -0.17187,0.34375 -0.17187,0.85938 z m 1.79687,-8.45313 v 1.10938 h -4.57812 v -1.10938 z m 6.78125,6.5 v -6.5 h 1.45313 v 8.45313 h -1.39063 z m 0.26563,-1.78125 0.60937,-0.0156 q 0,0.84375 -0.1875,1.5625 -0.17187,0.70312 -0.5625,1.23437 -0.39062,0.51563 -1.03125,0.8125 -0.625,0.29688 -1.53125,0.29688 -0.60937,0 -1.125,-0.17188 -0.51562,-0.1875 -0.89062,-0.5625 -0.35938,-0.375 -0.5625,-0.96875 -0.1875,-0.60937 -0.1875,-1.45312 v -5.45313 h 1.4375 v 5.46875 q 0,0.5625 0.125,0.9375 0.14062,0.375 0.35937,0.59375 0.21875,0.20313 0.5,0.29688 0.28125,0.0781 0.57813,0.0781 0.92187,0 1.45312,-0.34375 0.54688,-0.35937 0.78125,-0.96875 0.23438,-0.60937 0.23438,-1.34375 z m 4.82031,-2.92187 v 6.65625 h -1.4375 v -8.45313 h 1.35938 z m -0.34375,2.10937 -0.59375,-0.0312 q 0,-0.85937 0.25,-1.59375 0.25,-0.75 0.70313,-1.29687 0.45312,-0.54688 1.07812,-0.84375 0.64063,-0.29688 1.40625,-0.29688 0.625,0 1.125,0.17188 0.5,0.15625 0.84375,0.53125 0.35938,0.35937 0.54688,0.95312 0.1875,0.57813 0.1875,1.40625 v 5.54688 h -1.45313 v -5.5625 q 0,-0.65625 -0.20312,-1.0625 -0.1875,-0.40625 -0.5625,-0.57813 -0.375,-0.1875 -0.92188,-0.1875 -0.53125,0 -0.98437,0.23438 -0.4375,0.21875 -0.75,0.625 -0.3125,0.39062 -0.5,0.90625 -0.17188,0.5 -0.17188,1.07812 z m 11.11719,3.51563 q 0.51562,0 0.95312,-0.20313 0.4375,-0.21875 0.71875,-0.59375 0.28125,-0.375 0.32813,-0.84375 h 1.375 q -0.0469,0.75 -0.51563,1.39063 -0.45312,0.64062 -1.20312,1.04687 -0.75,0.39063 -1.65625,0.39063 -0.95313,0 -1.65625,-0.32813 -0.70313,-0.34375 -1.17188,-0.92187 -0.46875,-0.59375 -0.70312,-1.35938 -0.21875,-0.76562 -0.21875,-1.60937 v -0.32813 q 0,-0.85937 0.21875,-1.60937 0.23437,-0.76563 0.70312,-1.34375 0.46875,-0.59375 1.17188,-0.92188 0.70312,-0.34375 1.65625,-0.34375 1,0 1.73437,0.40625 0.75,0.39063 1.17188,1.09375 0.42187,0.6875 0.46875,1.5625 h -1.375 q -0.0469,-0.53125 -0.29688,-0.95312 -0.25,-0.42188 -0.6875,-0.67188 -0.4375,-0.25 -1.01562,-0.25 -0.65625,0 -1.10938,0.26563 -0.45312,0.25 -0.71875,0.70312 -0.25,0.4375 -0.375,0.96875 -0.10937,0.53125 -0.10937,1.09375 v 0.32813 q 0,0.54687 0.10937,1.09375 0.10938,0.53125 0.375,0.96875 0.26563,0.4375 0.70313,0.70312 0.45312,0.26563 1.125,0.26563 z m 8.53125,-7.42188 v 1.10938 h -4.5625 v -1.10938 z m -3.01563,-2.0625 h 1.4375 v 8.42188 q 0,0.42187 0.125,0.64062 0.14063,0.21875 0.34375,0.29688 0.21875,0.0625 0.46875,0.0625 0.17188,0 0.375,-0.0312 0.20313,-0.0312 0.29688,-0.0625 l 0.0156,1.1875 q -0.17187,0.0625 -0.45312,0.10937 -0.28125,0.0469 -0.67188,0.0469 -0.53125,0 -0.98437,-0.20313 -0.4375,-0.21875 -0.70313,-0.71875 -0.25,-0.5 -0.25,-1.34375 z m 6.28125,2.0625 v 8.45313 h -1.45312 v -8.45313 z m -1.5625,-2.25 q 0,-0.34375 0.21875,-0.57812 0.21875,-0.25 0.64063,-0.25 0.40625,0 0.625,0.25 0.23437,0.23437 0.23437,0.57812 0,0.34375 -0.23437,0.57813 -0.21875,0.23437 -0.625,0.23437 -0.42188,0 -0.64063,-0.23437 -0.21875,-0.23438 -0.21875,-0.57813 z m 3.5,6.5625 v -0.17187 q 0,-0.92188 0.26563,-1.70313 0.26562,-0.78125 0.76562,-1.35937 0.5,-0.59375 1.20313,-0.90625 0.71875,-0.32813 1.60937,-0.32813 0.89063,0 1.59375,0.32813 0.71875,0.3125 1.21875,0.90625 0.51563,0.57812 0.78125,1.35937 0.26563,0.78125 0.26563,1.70313 v 0.17187 q 0,0.92188 -0.26563,1.70313 -0.26562,0.78125 -0.78125,1.35937 -0.5,0.57813 -1.20312,0.90625 -0.70313,0.32813 -1.59375,0.32813 -0.89063,0 -1.60938,-0.32813 -0.70312,-0.32812 -1.21875,-0.90625 -0.5,-0.57812 -0.76562,-1.35937 -0.26563,-0.78125 -0.26563,-1.70313 z m 1.45313,-0.17187 v 0.17187 q 0,0.64063 0.14062,1.20313 0.15625,0.54687 0.45313,0.98437 0.29687,0.42188 0.75,0.67188 0.45312,0.25 1.0625,0.25 0.59375,0 1.03125,-0.25 0.45312,-0.25 0.75,-0.67188 0.29687,-0.4375 0.45312,-0.98437 0.15625,-0.5625 0.15625,-1.20313 v -0.17187 q 0,-0.625 -0.15625,-1.1875 -0.15625,-0.5625 -0.45312,-0.98438 -0.29688,-0.4375 -0.75,-0.6875 -0.45313,-0.25 -1.04688,-0.25 -0.59375,0 -1.04687,0.25 -0.45313,0.25 -0.75,0.6875 -0.29688,0.42188 -0.45313,0.98438 -0.14062,0.5625 -0.14062,1.1875 z m 9.5,-2.34375 v 6.65625 h -1.4375 v -8.45313 h 1.35937 z m -0.34375,2.10937 -0.59375,-0.0312 q 0,-0.85937 0.25,-1.59375 0.25,-0.75 0.70312,-1.29687 0.45313,-0.54688 1.07813,-0.84375 0.64062,-0.29688 1.40625,-0.29688 0.625,0 1.125,0.17188 0.5,0.15625 0.84375,0.53125 0.35937,0.35937 0.54687,0.95312 0.1875,0.57813 0.1875,1.40625 v 5.54688 h -1.45312 v -5.5625 q 0,-0.65625 -0.20313,-1.0625 -0.1875,-0.40625 -0.5625,-0.57813 -0.375,-0.1875 -0.92187,-0.1875 -0.53125,0 -0.98438,0.23438 -0.4375,0.21875 -0.75,0.625 -0.3125,0.39062 -0.5,0.90625 -0.17187,0.5 -0.17187,1.07812 z"
     fill-rule="nonzero"
     id="path20" />
  <path
     fill="#000000"
     fill-opacity="0"
     d="m 544.25191,197.46988 h 220.18896 v 41.32284 H 544.25191 Z"
     fill-rule="evenodd"
     id="path21" />
  <path
     stroke="#ffffff"
     stroke-width="1"
     stroke-linejoin="round"
     stroke-linecap="butt"
     d="m 544.25191,197.46988 h 220.18896 v 41.32284 H 544.25191 Z"
     fill-rule="evenodd"
     id="path22" />
  <path
     fill="#ffffff"
     d="m 555.92379,211.9913 v 12 h -1.45313 v -12 z m 1.9375,7.85937 v -0.17187 q 0,-0.92188 0.26562,-1.70313 0.26563,-0.78125 0.76563,-1.35937 0.5,-0.59375 1.20312,-0.90625 0.71875,-0.32813 1.60938,-0.32813 0.89062,0 1.59375,0.32813 0.71875,0.3125 1.21875,0.90625 0.51562,0.57812 0.78125,1.35937 0.26562,0.78125 0.26562,1.70313 v 0.17187 q 0,0.92188 -0.26562,1.70313 -0.26563,0.78125 -0.78125,1.35937 -0.5,0.57813 -1.20313,0.90625 -0.70312,0.32813 -1.59375,0.32813 -0.89062,0 -1.60937,-0.32813 -0.70313,-0.32812 -1.21875,-0.90625 -0.5,-0.57812 -0.76563,-1.35937 -0.26562,-0.78125 -0.26562,-1.70313 z m 1.45312,-0.17187 v 0.17187 q 0,0.64063 0.14063,1.20313 0.15625,0.54687 0.45312,0.98437 0.29688,0.42188 0.75,0.67188 0.45313,0.25 1.0625,0.25 0.59375,0 1.03125,-0.25 0.45313,-0.25 0.75,-0.67188 0.29688,-0.4375 0.45313,-0.98437 0.15625,-0.5625 0.15625,-1.20313 v -0.17187 q 0,-0.625 -0.15625,-1.1875 -0.15625,-0.5625 -0.45313,-0.98438 -0.29687,-0.4375 -0.75,-0.6875 -0.45312,-0.25 -1.04687,-0.25 -0.59375,0 -1.04688,0.25 -0.45312,0.25 -0.75,0.6875 -0.29687,0.42188 -0.45312,0.98438 -0.14063,0.5625 -0.14063,1.1875 z m 12.98438,2.0625 q 0,-0.3125 -0.14063,-0.57813 -0.14062,-0.26562 -0.5625,-0.48437 -0.40625,-0.23438 -1.25,-0.39063 -0.70312,-0.15625 -1.26562,-0.35937 -0.5625,-0.20313 -0.96875,-0.48438 -0.39063,-0.29687 -0.60938,-0.6875 -0.20312,-0.39062 -0.20312,-0.90625 0,-0.5 0.21875,-0.9375 0.23437,-0.45312 0.64062,-0.79687 0.40625,-0.34375 0.98438,-0.53125 0.57812,-0.20313 1.29687,-0.20313 1.01563,0 1.73438,0.35938 0.71875,0.35937 1.09375,0.95312 0.39062,0.59375 0.39062,1.32813 h -1.45312 q 0,-0.35938 -0.20313,-0.6875 -0.20312,-0.32813 -0.60937,-0.54688 -0.39063,-0.21875 -0.95313,-0.21875 -0.60937,0 -0.98437,0.1875 -0.35938,0.17188 -0.53125,0.45313 -0.17188,0.28125 -0.17188,0.59375 0,0.23437 0.0781,0.42187 0.0937,0.1875 0.29687,0.34375 0.21875,0.14063 0.59375,0.28125 0.39063,0.125 0.98438,0.26563 1.03125,0.23437 1.70312,0.5625 0.67188,0.32812 1,0.8125 0.32813,0.46875 0.32813,1.14062 0,0.5625 -0.23438,1.03125 -0.21875,0.45313 -0.65625,0.78125 -0.4375,0.32813 -1.03125,0.51563 -0.59375,0.1875 -1.34375,0.1875 -1.10937,0 -1.89062,-0.39063 -0.76563,-0.40625 -1.17188,-1.03125 -0.39062,-0.64062 -0.39062,-1.34375 h 1.45312 q 0.0312,0.59375 0.34375,0.9375 0.3125,0.34375 0.76563,0.5 0.45312,0.14063 0.89062,0.14063 0.59375,0 1,-0.15625 0.40625,-0.15625 0.60938,-0.42188 0.21875,-0.28125 0.21875,-0.64062 z m 8.25781,0 q 0,-0.3125 -0.14062,-0.57813 -0.14063,-0.26562 -0.5625,-0.48437 -0.40625,-0.23438 -1.25,-0.39063 -0.70313,-0.15625 -1.26563,-0.35937 -0.5625,-0.20313 -0.96875,-0.48438 -0.39062,-0.29687 -0.60937,-0.6875 -0.20313,-0.39062 -0.20313,-0.90625 0,-0.5 0.21875,-0.9375 0.23438,-0.45312 0.64063,-0.79687 0.40625,-0.34375 0.98437,-0.53125 0.57813,-0.20313 1.29688,-0.20313 1.01562,0 1.73437,0.35938 0.71875,0.35937 1.09375,0.95312 0.39063,0.59375 0.39063,1.32813 h -1.45313 q 0,-0.35938 -0.20312,-0.6875 -0.20313,-0.32813 -0.60938,-0.54688 -0.39062,-0.21875 -0.95312,-0.21875 -0.60938,0 -0.98438,0.1875 -0.35937,0.17188 -0.53125,0.45313 -0.17187,0.28125 -0.17187,0.59375 0,0.23437 0.0781,0.42187 0.0937,0.1875 0.29688,0.34375 0.21875,0.14063 0.59375,0.28125 0.39062,0.125 0.98437,0.26563 1.03125,0.23437 1.70313,0.5625 0.67187,0.32812 1,0.8125 0.32812,0.46875 0.32812,1.14062 0,0.5625 -0.23437,1.03125 -0.21875,0.45313 -0.65625,0.78125 -0.4375,0.32813 -1.03125,0.51563 -0.59375,0.1875 -1.34375,0.1875 -1.10938,0 -1.89063,-0.39063 -0.76562,-0.40625 -1.17187,-1.03125 -0.39063,-0.64062 -0.39063,-1.34375 h 1.45313 q 0.0312,0.59375 0.34375,0.9375 0.3125,0.34375 0.76562,0.5 0.45313,0.14063 0.89063,0.14063 0.59375,0 1,-0.15625 0.40625,-0.15625 0.60937,-0.42188 0.21875,-0.28125 0.21875,-0.64062 z m 9.46094,2.25 h -1.45313 v -9.34375 q 0,-0.92188 0.32813,-1.54688 0.34375,-0.625 0.96875,-0.95312 0.625,-0.32813 1.48437,-0.32813 0.25,0 0.5,0.0312 0.25,0.0312 0.5,0.0937 l -0.0781,1.1875 q -0.17188,-0.0469 -0.375,-0.0625 -0.20313,-0.0156 -0.40625,-0.0156 -0.46875,0 -0.79688,0.1875 -0.32812,0.1875 -0.5,0.54687 -0.17187,0.34375 -0.17187,0.85938 z m 1.79687,-8.45313 v 1.10938 h -4.57812 v -1.10938 z m 6.78125,6.5 v -6.5 h 1.45313 v 8.45313 h -1.39063 z m 0.26563,-1.78125 0.60937,-0.0156 q 0,0.84375 -0.1875,1.5625 -0.17187,0.70312 -0.5625,1.23437 -0.39062,0.51563 -1.03125,0.8125 -0.625,0.29688 -1.53125,0.29688 -0.60937,0 -1.125,-0.17188 -0.51562,-0.1875 -0.89062,-0.5625 -0.35938,-0.375 -0.5625,-0.96875 -0.1875,-0.60937 -0.1875,-1.45312 v -5.45313 h 1.4375 v 5.46875 q 0,0.5625 0.125,0.9375 0.14062,0.375 0.35937,0.59375 0.21875,0.20313 0.5,0.29688 0.28125,0.0781 0.57813,0.0781 0.92187,0 1.45312,-0.34375 0.54688,-0.35937 0.78125,-0.96875 0.23438,-0.60937 0.23438,-1.34375 z m 4.82031,-2.92187 v 6.65625 h -1.4375 v -8.45313 h 1.35938 z m -0.34375,2.10937 -0.59375,-0.0312 q 0,-0.85937 0.25,-1.59375 0.25,-0.75 0.70313,-1.29687 0.45312,-0.54688 1.07812,-0.84375 0.64063,-0.29688 1.40625,-0.29688 0.625,0 1.125,0.17188 0.5,0.15625 0.84375,0.53125 0.35938,0.35937 0.54688,0.95312 0.1875,0.57813 0.1875,1.40625 v 5.54688 h -1.45313 v -5.5625 q 0,-0.65625 -0.20312,-1.0625 -0.1875,-0.40625 -0.5625,-0.57813 -0.375,-0.1875 -0.92188,-0.1875 -0.53125,0 -0.98437,0.23438 -0.4375,0.21875 -0.75,0.625 -0.3125,0.39062 -0.5,0.90625 -0.17188,0.5 -0.17188,1.07812 z m 11.11719,3.51563 q 0.51562,0 0.95312,-0.20313 0.4375,-0.21875 0.71875,-0.59375 0.28125,-0.375 0.32813,-0.84375 h 1.375 q -0.0469,0.75 -0.51563,1.39063 -0.45312,0.64062 -1.20312,1.04687 -0.75,0.39063 -1.65625,0.39063 -0.95313,0 -1.65625,-0.32813 -0.70313,-0.34375 -1.17188,-0.92187 -0.46875,-0.59375 -0.70312,-1.35938 -0.21875,-0.76562 -0.21875,-1.60937 v -0.32813 q 0,-0.85937 0.21875,-1.60937 0.23437,-0.76563 0.70312,-1.34375 0.46875,-0.59375 1.17188,-0.92188 0.70312,-0.34375 1.65625,-0.34375 1,0 1.73437,0.40625 0.75,0.39063 1.17188,1.09375 0.42187,0.6875 0.46875,1.5625 h -1.375 q -0.0469,-0.53125 -0.29688,-0.95312 -0.25,-0.42188 -0.6875,-0.67188 -0.4375,-0.25 -1.01562,-0.25 -0.65625,0 -1.10938,0.26563 -0.45312,0.25 -0.71875,0.70312 -0.25,0.4375 -0.375,0.96875 -0.10937,0.53125 -0.10937,1.09375 v 0.32813 q 0,0.54687 0.10937,1.09375 0.10938,0.53125 0.375,0.96875 0.26563,0.4375 0.70313,0.70312 0.45312,0.26563 1.125,0.26563 z m 8.53125,-7.42188 v 1.10938 h -4.5625 v -1.10938 z m -3.01563,-2.0625 h 1.4375 v 8.42188 q 0,0.42187 0.125,0.64062 0.14063,0.21875 0.34375,0.29688 0.21875,0.0625 0.46875,0.0625 0.17188,0 0.375,-0.0312 0.20313,-0.0312 0.29688,-0.0625 l 0.0156,1.1875 q -0.17187,0.0625 -0.45312,0.10937 -0.28125,0.0469 -0.67188,0.0469 -0.53125,0 -0.98437,-0.20313 -0.4375,-0.21875 -0.70313,-0.71875 -0.25,-0.5 -0.25,-1.34375 z m 6.28125,2.0625 v 8.45313 h -1.45312 v -8.45313 z m -1.5625,-2.25 q 0,-0.34375 0.21875,-0.57812 0.21875,-0.25 0.64063,-0.25 0.40625,0 0.625,0.25 0.23437,0.23437 0.23437,0.57812 0,0.34375 -0.23437,0.57813 -0.21875,0.23437 -0.625,0.23437 -0.42188,0 -0.64063,-0.23437 -0.21875,-0.23438 -0.21875,-0.57813 z m 3.5,6.5625 v -0.17187 q 0,-0.92188 0.26563,-1.70313 0.26562,-0.78125 0.76562,-1.35937 0.5,-0.59375 1.20313,-0.90625 0.71875,-0.32813 1.60937,-0.32813 0.89063,0 1.59375,0.32813 0.71875,0.3125 1.21875,0.90625 0.51563,0.57812 0.78125,1.35937 0.26563,0.78125 0.26563,1.70313 v 0.17187 q 0,0.92188 -0.26563,1.70313 -0.26562,0.78125 -0.78125,1.35937 -0.5,0.57813 -1.20312,0.90625 -0.70313,0.32813 -1.59375,0.32813 -0.89063,0 -1.60938,-0.32813 -0.70312,-0.32812 -1.21875,-0.90625 -0.5,-0.57812 -0.76562,-1.35937 -0.26563,-0.78125 -0.26563,-1.70313 z m 1.45313,-0.17187 v 0.17187 q 0,0.64063 0.14062,1.20313 0.15625,0.54687 0.45313,0.98437 0.29687,0.42188 0.75,0.67188 0.45312,0.25 1.0625,0.25 0.59375,0 1.03125,-0.25 0.45312,-0.25 0.75,-0.67188 0.29687,-0.4375 0.45312,-0.98437 0.15625,-0.5625 0.15625,-1.20313 v -0.17187 q 0,-0.625 -0.15625,-1.1875 -0.15625,-0.5625 -0.45312,-0.98438 -0.29688,-0.4375 -0.75,-0.6875 -0.45313,-0.25 -1.04688,-0.25 -0.59375,0 -1.04687,0.25 -0.45313,0.25 -0.75,0.6875 -0.29688,0.42188 -0.45313,0.98438 -0.14062,0.5625 -0.14062,1.1875 z m 9.5,-2.34375 v 6.65625 h -1.4375 v -8.45313 h 1.35937 z m -0.34375,2.10937 -0.59375,-0.0312 q 0,-0.85937 0.25,-1.59375 0.25,-0.75 0.70312,-1.29687 0.45313,-0.54688 1.07813,-0.84375 0.64062,-0.29688 1.40625,-0.29688 0.625,0 1.125,0.17188 0.5,0.15625 0.84375,0.53125 0.35937,0.35937 0.54687,0.95312 0.1875,0.57813 0.1875,1.40625 v 5.54688 h -1.45312 v -5.5625 q 0,-0.65625 -0.20313,-1.0625 -0.1875,-0.40625 -0.5625,-0.57813 -0.375,-0.1875 -0.92187,-0.1875 -0.53125,0 -0.98438,0.23438 -0.4375,0.21875 -0.75,0.625 -0.3125,0.39062 -0.5,0.90625 -0.17187,0.5 -0.17187,1.07812 z"
     fill-rule="nonzero"
     id="path23" />
</svg>
