<?xml version="1.0" encoding="UTF-8" standalone="no"?>
<svg
   version="1.1"
   viewBox="0 0 610.56537 300.26614"
   fill="none"
   stroke="none"
   stroke-linecap="square"
   stroke-miterlimit="10"
   id="svg57"
   sodipodi:docname="Unbenannte Präsentation.svg"
   width="610.56537"
   height="300.26614"
   inkscape:version="1.1.2 (0a00cf5339, 2022-02-04, custom)"
   xmlns:inkscape="http://www.inkscape.org/namespaces/inkscape"
   xmlns:sodipodi="http://sodipodi.sourceforge.net/DTD/sodipodi-0.dtd"
   xmlns="http://www.w3.org/2000/svg"
   xmlns:svg="http://www.w3.org/2000/svg">
  <defs
     id="defs61" />
  <sodipodi:namedview
     id="namedview59"
     pagecolor="#ffffff"
     bordercolor="#666666"
     borderopacity="1.0"
     inkscape:pageshadow="2"
     inkscape:pageopacity="0.0"
     inkscape:pagecheckerboard="0"
     showgrid="false"
     fit-margin-top="0.2"
     fit-margin-bottom="0.2"
     fit-margin-right="0.2"
     fit-margin-left="0.2"
     inkscape:zoom="1.1666667"
     inkscape:cx="298.28571"
     inkscape:cy="216"
     inkscape:window-width="1880"
     inkscape:window-height="1053"
     inkscape:window-x="1920"
     inkscape:window-y="0"
     inkscape:window-maximized="1"
     inkscape:current-layer="svg57" />
  <clipPath
     id="g130a49aab5f_0_0.0">
    <path
       d="M 0,0 H 960 V 540 H 0 Z"
       clip-rule="nonzero"
       id="path2" />
  </clipPath>
  <path
     fill="#000000"
     fill-opacity="0"
     d="M 0.7,0.7 H 609.86534 V 299.56615 H 0.7 Z"
     fill-rule="evenodd"
     id="path7" />
  <path
     stroke="#595959"
     stroke-width="1"
     stroke-linejoin="round"
     stroke-linecap="butt"
     d="M 0.7,0.7 H 609.86534 V 299.56615 H 0.7 Z"
     fill-rule="evenodd"
     id="path9" />
  <path
     fill="#000000"
     d="m 21.214342,23.414373 q -2.578125,-0.734375 -3.75,-1.8125 -1.171875,-1.078125 -1.171875,-2.65625 0,-1.796875 1.421875,-2.96875 1.4375,-1.171875 3.734375,-1.171875 1.5625,0 2.78125,0.609375 1.234375,0.609375 1.890625,1.671875 0.671875,1.0625 0.671875,2.3125 h -2 q 0,-1.375 -0.875,-2.15625 -0.875,-0.78125 -2.46875,-0.78125 -1.484375,0 -2.3125,0.65625 -0.828125,0.640625 -0.828125,1.796875 0,0.921875 0.78125,1.5625 0.796875,0.640625 2.6875,1.171875 1.890625,0.53125 2.953125,1.171875 1.0625,0.640625 1.578125,1.5 0.515625,0.84375 0.515625,2 0,1.84375 -1.4375,2.953125 -1.421875,1.109375 -3.828125,1.109375 -1.5625,0 -2.921875,-0.59375 -1.359375,-0.59375 -2.09375,-1.640625 -0.734375,-1.046875 -0.734375,-2.359375 h 2.015625 q 0,1.375 1.015625,2.171875 1.015625,0.796875 2.71875,0.796875 1.578125,0 2.421875,-0.640625 0.84375,-0.65625 0.84375,-1.765625 0,-1.125 -0.78125,-1.734375 -0.78125,-0.609375 -2.828125,-1.203125 z m 12.559418,6.96875 q -2.296875,0 -3.734375,-1.5 -1.4375,-1.5 -1.4375,-4.03125 v -0.34375 q 0,-1.6875 0.640625,-3 0.640625,-1.3125 1.78125,-2.046875 1.15625,-0.75 2.5,-0.75 2.203125,0 3.421875,1.453125 1.21875,1.4375 1.21875,4.125 v 0.8125 H 30.52376 q 0.04687,1.65625 0.96875,2.6875 0.9375,1.03125 2.375,1.03125 1.03125,0 1.734375,-0.421875 0.703125,-0.421875 1.234375,-1.109375 l 1.1875,0.921875 q -1.421875,2.171875 -4.25,2.171875 z m -0.25,-10.09375 q -1.15625,0 -1.953125,0.84375 -0.796875,0.84375 -0.984375,2.375 h 5.65625 v -0.140625 q -0.09375,-1.46875 -0.796875,-2.265625 -0.703125,-0.8125 -1.921875,-0.8125 z m 8.674332,-1.375 0.0625,1.25 q 1.234375,-1.453125 3.34375,-1.453125 2.35937,0 3.21875,1.796875 0.5625,-0.8125 1.45312,-1.296875 0.90625,-0.5 2.125,-0.5 3.71875,0 3.78125,3.921875 v 7.546875 h -1.9375 v -7.4375 q 0,-1.203125 -0.54687,-1.796875 -0.54688,-0.609375 -1.85938,-0.609375 -1.0625,0 -1.78125,0.640625 -0.70312,0.640625 -0.8125,1.71875 v 7.484375 h -1.9375 v -7.390625 q 0,-2.453125 -2.406245,-2.453125 -1.890625,0 -2.59375,1.609375 v 8.234375 H 40.385592 V 18.914373 Z"
     fill-rule="nonzero"
     id="path11" />
  <path
     fill="#aa79c1"
     d="M 15.219682,51.912603 H 288.85748 V 119.18819 H 15.219682 Z"
     fill-rule="evenodd"
     id="path13" />
  <path
     stroke="#ffffff"
     stroke-width="1"
     stroke-linejoin="round"
     stroke-linecap="butt"
     d="M 15.219682,51.912603 H 288.85748 V 119.18819 H 15.219682 Z"
     fill-rule="evenodd"
     id="path15" />
  <path
     fill="#ffffff"
     d="m 25.047802,87.454763 q 0,-1.45313 0.5625,-2.60938 0.578125,-1.15625 1.59375,-1.78125 1.015625,-0.625 2.3125,-0.625 2.015625,0 3.25,1.39063 1.25,1.39062 1.25,3.70312 v 0.125 q 0,1.4375 -0.546875,2.57813 -0.546875,1.14062 -1.578125,1.78125 -1.015625,0.64062 -2.359375,0.64062 -2,0 -3.25,-1.39062 -1.234375,-1.40625 -1.234375,-3.70313 z m 1.6875,0.20312 q 0,1.64063 0.765625,2.64063 0.765625,0.98437 2.03125,0.98437 1.296875,0 2.046875,-1 0.75,-1.01562 0.75,-2.82812 0,-1.625 -0.765625,-2.625 -0.765625,-1.01563 -2.046875,-1.01563 -1.25,0 -2.015625,1 -0.765625,0.98438 -0.765625,2.84375 z m 17.749268,0 q 0,2.25 -1.046875,3.625 -1.03125,1.375 -2.78125,1.375 -1.875,0 -2.890625,-1.32812 l -0.07813,1.14062 h -1.546875 v -14 h 1.671875 v 5.23438 q 1.03125,-1.26563 2.8125,-1.26563 1.796875,0 2.828125,1.35938 1.03125,1.34375 1.03125,3.70312 z m -1.6875,-0.20312 q 0,-1.71875 -0.671875,-2.65625 -0.65625,-0.9375 -1.90625,-0.9375 -1.671875,0 -2.40625,1.54687 v 4.26563 q 0.78125,1.54687 2.421875,1.54687 1.21875,0 1.890625,-0.9375 0.671875,-0.9375 0.671875,-2.82812 z m 9.544942,2.40625 q 0,-0.6875 -0.51563,-1.0625 -0.51562,-0.375 -1.79687,-0.64063 -1.28125,-0.28125 -2.03125,-0.65625 -0.75,-0.39062 -1.10938,-0.92187 -0.35937,-0.53125 -0.35937,-1.26563 0,-1.20312 1.01562,-2.03125 1.03125,-0.84375 2.625,-0.84375 1.67188,0 2.71875,0.85938 1.04688,0.85937 1.04688,2.21875 h -1.6875 q 0,-0.70313 -0.59375,-1.20313 -0.59375,-0.5 -1.48438,-0.5 -0.92187,0 -1.4375,0.40625 -0.51562,0.39063 -0.51562,1.04688 0,0.60937 0.48437,0.92187 0.48438,0.3125 1.73438,0.59375 1.26562,0.28125 2.04687,0.67188 0.78125,0.39062 1.15625,0.9375 0.39063,0.54687 0.39063,1.34375 0,1.32812 -1.0625,2.125 -1.04688,0.79687 -2.73438,0.79687 -1.1875,0 -2.10937,-0.42187 -0.90625,-0.42188 -1.42188,-1.17188 -0.51562,-0.75 -0.51562,-1.625 h 1.6875 q 0.0469,0.84375 0.67187,1.34375 0.64063,0.5 1.6875,0.5 0.95313,0 1.53125,-0.39062 0.57813,-0.39063 0.57813,-1.03125 z m 7.96337,2.79687 q -2,0 -3.26562,-1.3125 -1.25,-1.32812 -1.25,-3.53125 v -0.3125 q 0,-1.46875 0.5625,-2.60937 0.5625,-1.15625 1.5625,-1.79688 1.01562,-0.65625 2.1875,-0.65625 1.92187,0 2.98437,1.26563 1.0625,1.26562 1.0625,3.625 v 0.6875 h -6.67187 q 0.0312,1.46875 0.84375,2.375 0.82812,0.89062 2.07812,0.89062 0.89063,0 1.51563,-0.35937 0.625,-0.375 1.07812,-0.96875 l 1.03125,0.79687 q -1.23437,1.90625 -3.71875,1.90625 z m -0.20312,-8.84375 q -1.01563,0 -1.71875,0.75 -0.6875,0.73438 -0.84375,2.07813 h 4.9375 v -0.125 q -0.0781,-1.28125 -0.70313,-1.98438 -0.60937,-0.71875 -1.67187,-0.71875 z m 10.77443,0.3125 q -0.39063,-0.0625 -0.84375,-0.0625 -1.65625,0 -2.25,1.40625 v 7 h -1.67188 v -9.85937 h 1.64063 l 0.0156,1.14062 q 0.82813,-1.3125 2.35938,-1.3125 0.48437,0 0.75,0.125 z m 4.96132,6.0625 2.4375,-7.57812 h 1.71875 l -3.53125,9.85937 h -1.28125 l -3.57813,-9.85937 h 1.71875 z m 9.74626,2.46875 q -2,0 -3.26563,-1.3125 -1.25,-1.32812 -1.25,-3.53125 v -0.3125 q 0,-1.46875 0.5625,-2.60937 0.5625,-1.15625 1.5625,-1.79688 1.01563,-0.65625 2.1875,-0.65625 1.92188,0 2.98438,1.26563 1.0625,1.26562 1.0625,3.625 v 0.6875 h -6.67188 q 0.0312,1.46875 0.84375,2.375 0.82813,0.89062 2.07813,0.89062 0.89062,0 1.51562,-0.35937 0.625,-0.375 1.07813,-0.96875 l 1.03125,0.79687 q -1.23438,1.90625 -3.71875,1.90625 z m -0.20313,-8.84375 q -1.01562,0 -1.71875,0.75 -0.6875,0.73438 -0.84375,2.07813 h 4.9375 v -0.125 q -0.0781,-1.28125 -0.70312,-1.98438 -0.60938,-0.71875 -1.67188,-0.71875 z m 5.58693,3.64063 q 0,-2.26563 1.07813,-3.64063 1.07812,-1.375 2.8125,-1.375 1.73437,0 2.75,1.17188 v -5.14063 h 1.6875 v 14 h -1.54688 l -0.0937,-1.0625 q -1,1.25 -2.8125,1.25 -1.70312,0 -2.79687,-1.40625 -1.07813,-1.40625 -1.07813,-3.65625 z m 1.6875,0.20312 q 0,1.67188 0.6875,2.625 0.70313,0.9375 1.92188,0.9375 1.60937,0 2.34375,-1.4375 v -4.53125 q -0.76563,-1.39062 -2.32813,-1.39062 -1.23437,0 -1.9375,0.95312 -0.6875,0.95313 -0.6875,2.84375 z"
     fill-rule="nonzero"
     id="path17" />
  <path
     fill="#60ad51"
     d="M 15.219682,130.58713 H 288.85748 v 67.2756 H 15.219682 Z"
     fill-rule="evenodd"
     id="path19" />
  <path
     stroke="#ffffff"
     stroke-width="1"
     stroke-linejoin="round"
     stroke-linecap="butt"
     d="M 15.219682,130.58713 H 288.85748 v 67.2756 H 15.219682 Z"
     fill-rule="evenodd"
     id="path21" />
  <path
     fill="#ffffff"
     d="m 27.329052,171.14493 h -1.6875 v -9.85937 h 1.6875 z m -1.828125,-12.46875 q 0,-0.40625 0.25,-0.6875 0.25,-0.29687 0.734375,-0.29687 0.5,0 0.75,0.29687 0.265625,0.28125 0.265625,0.6875 0,0.40625 -0.265625,0.6875 -0.25,0.26563 -0.75,0.26563 -0.484375,0 -0.734375,-0.26563 -0.25,-0.28125 -0.25,-0.6875 z m 6.105545,2.60938 0.04687,1.09375 q 1.078125,-1.26563 2.921875,-1.26563 2.0625,0 2.8125,1.57813 0.5,-0.71875 1.28125,-1.14063 0.796875,-0.4375 1.859375,-0.4375 3.25,0 3.296875,3.42188 v 6.60937 h -1.671875 v -6.5 q 0,-1.0625 -0.484375,-1.57812 -0.484375,-0.53125 -1.625,-0.53125 -0.9375,0 -1.5625,0.5625 -0.609375,0.5625 -0.71875,1.5 v 6.54687 h -1.6875 v -6.45312 q 0,-2.15625 -2.109375,-2.15625 -1.65625,0 -2.265625,1.40625 v 7.20312 h -1.6875 v -9.85937 z m 23.08592,5.04687 q 0,2.25 -1.03125,3.625 -1.01562,1.375 -2.78125,1.375 -1.79687,0 -2.82812,-1.14062 v 4.75 h -1.67188 v -13.65625 h 1.53125 l 0.0781,1.09375 q 1.03125,-1.26563 2.85937,-1.26563 1.78125,0 2.8125,1.34375 1.03125,1.32813 1.03125,3.71875 z m -1.67187,-0.20312 q 0,-1.65625 -0.71875,-2.625 -0.70313,-0.96875 -1.95313,-0.96875 -1.53125,0 -2.29687,1.35937 v 4.70313 q 0.76562,1.35937 2.32812,1.35937 1.20313,0 1.92188,-0.95312 0.71875,-0.96875 0.71875,-2.875 z m 5.65431,5.01562 h -1.6875 v -14 h 1.6875 z m 5.91804,-2.46875 2.29688,-7.39062 h 1.79687 l -3.95312,11.375 q -0.92188,2.46875 -2.92188,2.46875 l -0.32812,-0.0312 -0.625,-0.125 v -1.35938 l 0.45312,0.0312 q 0.85938,0 1.32813,-0.34375 0.48437,-0.34375 0.79687,-1.26562 l 0.375,-1 -3.51562,-9.75 h 1.84375 z"
     fill-rule="nonzero"
     id="path23" />
  <path
     fill="#4063d8"
     d="M 314.8391,51.912603 H 588.47692 V 276.54253 H 314.8391 Z"
     fill-rule="evenodd"
     id="path25" />
  <path
     stroke="#ffffff"
     stroke-width="1"
     stroke-linejoin="round"
     stroke-linecap="butt"
     d="M 314.8391,51.912603 H 588.47692 V 276.54253 H 314.8391 Z"
     fill-rule="evenodd"
     id="path27" />
  <path
     fill="#ffffff"
     d="m 326.94847,78.832603 h -1.6875 v -14 h 1.6875 z m 2.24619,-5.01563 q 0,-1.45312 0.5625,-2.60937 0.57812,-1.15625 1.59375,-1.78125 1.01562,-0.625 2.3125,-0.625 2.01562,0 3.25,1.39063 1.25,1.39062 1.25,3.70312 v 0.125 q 0,1.4375 -0.54688,2.57812 -0.54687,1.14063 -1.57812,1.78125 -1.01563,0.64063 -2.35938,0.64063 -2,0 -3.25,-1.39063 -1.23437,-1.40625 -1.23437,-3.70312 z m 1.6875,0.20313 q 0,1.64062 0.76562,2.64062 0.76563,0.98438 2.03125,0.98438 1.29688,0 2.04688,-1 0.75,-1.01563 0.75,-2.82813 0,-1.62499 -0.76563,-2.62499 -0.76562,-1.01563 -2.04687,-1.01563 -1.25,0 -2.01563,1 -0.76562,0.98438 -0.76562,2.84375 z m 15.13989,2.20312 q 0,-0.6875 -0.51563,-1.0625 -0.51562,-0.375 -1.79687,-0.64062 -1.28125,-0.28125 -2.03125,-0.65625 -0.75,-0.39062 -1.10938,-0.92187 -0.35937,-0.53125 -0.35937,-1.26563 0,-1.20312 1.01562,-2.03125 1.03125,-0.84375 2.625,-0.84375 1.67188,0 2.71875,0.85938 1.04688,0.85937 1.04688,2.21875 h -1.6875 q 0,-0.70313 -0.59375,-1.20313 -0.59375,-0.5 -1.48438,-0.5 -0.92187,0 -1.4375,0.40625 -0.51562,0.39063 -0.51562,1.04688 0,0.60937 0.48437,0.92187 0.48438,0.3125 1.73438,0.59375 1.26562,0.28125 2.04687,0.67187 0.78125,0.39063 1.15625,0.9375 0.39063,0.54688 0.39063,1.34375 0,1.32813 -1.0625,2.125 -1.04688,0.79688 -2.73438,0.79688 -1.1875,0 -2.10937,-0.42188 -0.90625,-0.42187 -1.42188,-1.17187 -0.51562,-0.75 -0.51562,-1.625 h 1.6875 q 0.0469,0.84375 0.67187,1.34375 0.64063,0.5 1.6875,0.5 0.95313,0 1.53125,-0.39063 0.57813,-0.39062 0.57813,-1.03125 z m 9.61963,0 q 0,-0.6875 -0.51563,-1.0625 -0.51562,-0.375 -1.79687,-0.64062 -1.28125,-0.28125 -2.03125,-0.65625 -0.75,-0.39062 -1.10938,-0.92187 -0.35937,-0.53125 -0.35937,-1.26563 0,-1.20312 1.01562,-2.03125 1.03125,-0.84375 2.625,-0.84375 1.67188,0 2.71875,0.85938 1.04688,0.85937 1.04688,2.21875 h -1.6875 q 0,-0.70313 -0.59375,-1.20313 -0.59375,-0.5 -1.48438,-0.5 -0.92187,0 -1.4375,0.40625 -0.51562,0.39063 -0.51562,1.04688 0,0.60937 0.48437,0.92187 0.48438,0.3125 1.73438,0.59375 1.26562,0.28125 2.04687,0.67187 0.78125,0.39063 1.15625,0.9375 0.39063,0.54688 0.39063,1.34375 0,1.32813 -1.0625,2.125 -1.04688,0.79688 -2.73438,0.79688 -1.1875,0 -2.10937,-0.42188 -0.90625,-0.42187 -1.42188,-1.17187 -0.51562,-0.75 -0.51562,-1.625 h 1.6875 q 0.0469,0.84375 0.67187,1.34375 0.64063,0.5 1.6875,0.5 0.95313,0 1.53125,-0.39063 0.57813,-0.39062 0.57813,-1.03125 z"
     fill-rule="nonzero"
     id="path29" />
  <path
     fill="#d5635c"
     d="M 15.219682,209.26167 H 288.85748 v 67.2756 H 15.219682 Z"
     fill-rule="evenodd"
     id="path31" />
  <path
     stroke="#ffffff"
     stroke-width="1"
     stroke-linejoin="round"
     stroke-linecap="butt"
     d="M 15.219682,209.26167 H 288.85748 v 67.2756 H 15.219682 Z"
     fill-rule="evenodd"
     id="path33" />
  <path
     fill="#ffffff"
     d="m 25.047802,244.80385 q 0,-1.45313 0.5625,-2.60938 0.578125,-1.15625 1.59375,-1.78125 1.015625,-0.625 2.3125,-0.625 2.015625,0 3.25,1.39063 1.25,1.39062 1.25,3.70312 v 0.125 q 0,1.4375 -0.546875,2.57813 -0.546875,1.14062 -1.578125,1.78125 -1.015625,0.64062 -2.359375,0.64062 -2,0 -3.25,-1.39062 -1.234375,-1.40625 -1.234375,-3.70313 z m 1.6875,0.20312 q 0,1.64063 0.765625,2.64063 0.765625,0.98437 2.03125,0.98437 1.296875,0 2.046875,-1 0.75,-1.01562 0.75,-2.82812 0,-1.625 -0.765625,-2.625 -0.765625,-1.01563 -2.046875,-1.01563 -1.25,0 -2.015625,1 -0.765625,0.98438 -0.765625,2.84375 z m 17.718018,0 q 0,2.25 -1.03125,3.625 -1.015625,1.375 -2.78125,1.375 -1.796875,0 -2.828125,-1.14062 v 4.75 H 36.14082 V 239.9601 h 1.53125 l 0.07813,1.09375 q 1.03125,-1.26563 2.859375,-1.26563 1.78125,0 2.8125,1.34375 1.03125,1.32813 1.03125,3.71875 z m -1.671875,-0.20312 q 0,-1.65625 -0.71875,-2.625 -0.703125,-0.96875 -1.953125,-0.96875 -1.53125,0 -2.296875,1.35937 v 4.70313 q 0.765625,1.35937 2.328125,1.35937 1.203125,0 1.921875,-0.95312 0.71875,-0.96875 0.71875,-2.875 z m 6.107437,-7.23438 v 2.39063 h 1.84375 v 1.3125 h -1.84375 v 6.10937 q 0,0.59375 0.23438,0.89063 0.25,0.29687 0.84375,0.29687 0.29687,0 0.8125,-0.10937 v 1.35937 q -0.67188,0.1875 -1.29688,0.1875 -1.125,0 -1.70312,-0.6875 -0.57813,-0.6875 -0.57813,-1.9375 v -6.10937 h -1.796875 v -1.3125 h 1.796875 v -2.39063 z m 5.64113,12.25 h -1.6875 v -9.85937 h 1.6875 z m -1.82813,-12.46875 q 0,-0.40625 0.25,-0.6875 0.25,-0.29687 0.73438,-0.29687 0.5,0 0.75,0.29687 0.26562,0.28125 0.26562,0.6875 0,0.40625 -0.26562,0.6875 -0.25,0.26563 -0.75,0.26563 -0.48438,0 -0.73438,-0.26563 -0.25,-0.28125 -0.25,-0.6875 z m 6.10555,2.60938 0.0469,1.09375 q 1.07813,-1.26563 2.92188,-1.26563 2.0625,0 2.8125,1.57813 0.5,-0.71875 1.28125,-1.14063 0.79687,-0.4375 1.85937,-0.4375 3.25,0 3.29688,3.42188 v 6.60937 h -1.67188 v -6.5 q 0,-1.0625 -0.48437,-1.57812 -0.48438,-0.53125 -1.625,-0.53125 -0.9375,0 -1.5625,0.5625 -0.60938,0.5625 -0.71875,1.5 v 6.54687 h -1.6875 v -6.45312 q 0,-2.15625 -2.10938,-2.15625 -1.65625,0 -2.26562,1.40625 v 7.20312 h -1.6875 v -9.85937 z m 16.60155,9.85937 h -1.6875 v -9.85937 h 1.6875 z m -1.82813,-12.46875 q 0,-0.40625 0.25,-0.6875 0.25,-0.29687 0.73438,-0.29687 0.5,0 0.75,0.29687 0.26562,0.28125 0.26562,0.6875 0,0.40625 -0.26562,0.6875 -0.25,0.26563 -0.75,0.26563 -0.48438,0 -0.73438,-0.26563 -0.25,-0.28125 -0.25,-0.6875 z m 6.10555,11.09375 h 5.76562 v 1.375 h -7.82812 v -1.23437 l 5.4375,-7.23438 h -5.34375 v -1.39062 h 7.46875 v 1.20312 z m 11.60031,1.5625 q -2,0 -3.26563,-1.3125 -1.25,-1.32812 -1.25,-3.53125 v -0.3125 q 0,-1.46875 0.5625,-2.60937 0.5625,-1.15625 1.5625,-1.79688 1.01563,-0.65625 2.1875,-0.65625 1.92188,0 2.98438,1.26563 1.0625,1.26562 1.0625,3.625 v 0.6875 h -6.67188 q 0.0312,1.46875 0.84375,2.375 0.82813,0.89062 2.07813,0.89062 0.89062,0 1.51562,-0.35937 0.625,-0.375 1.07813,-0.96875 l 1.03125,0.79687 q -1.23438,1.90625 -3.71875,1.90625 z m -0.20313,-8.84375 q -1.01562,0 -1.71875,0.75 -0.6875,0.73438 -0.84375,2.07813 h 4.9375 v -0.125 q -0.0781,-1.28125 -0.70312,-1.98438 -0.60938,-0.71875 -1.67188,-0.71875 z m 10.774428,0.3125 q -0.39062,-0.0625 -0.84375,-0.0625 -1.656248,0 -2.249998,1.40625 v 7 h -1.67187 v -9.85937 h 1.64062 l 0.0156,1.14062 q 0.82812,-1.3125 2.359368,-1.3125 0.48438,0 0.75,0.125 z"
     fill-rule="nonzero"
     id="path35" />
  <path
     fill="#000000"
     fill-opacity="0"
     d="M 341.56352,105.36667 H 561.75248 V 146.6895 H 341.56352 Z"
     fill-rule="evenodd"
     id="path37" />
  <path
     stroke="#ffffff"
     stroke-width="1"
     stroke-linejoin="round"
     stroke-linecap="butt"
     d="M 341.56352,105.36667 H 561.75248 V 146.6895 H 341.56352 Z"
     fill-rule="evenodd"
     id="path39" />
  <path
     fill="#ffffff"
     d="m 353.2354,131.88808 h -1.45313 v -12 h 1.45313 z m 1.92969,-4.3125 q 0,-1.23438 0.48437,-2.21875 0.48438,-1 1.35938,-1.53125 0.875,-0.54688 1.98437,-0.54688 1.73438,0 2.79688,1.20313 1.0625,1.1875 1.0625,3.17187 v 0.0937 q 0,1.23438 -0.46875,2.21875 -0.46875,0.98438 -1.35938,1.53125 -0.875,0.54688 -2.01562,0.54688 -1.71875,0 -2.78125,-1.1875 -1.0625,-1.20313 -1.0625,-3.17188 z m 1.45312,0.17187 q 0,1.40625 0.64063,2.26563 0.65625,0.84375 1.75,0.84375 1.10937,0 1.75,-0.85938 0.65625,-0.85937 0.65625,-2.42187 0,-1.39063 -0.67188,-2.25 -0.65625,-0.85938 -1.75,-0.85938 -1.0625,0 -1.71875,0.85938 -0.65625,0.84375 -0.65625,2.42187 z m 12.96875,1.89063 q 0,-0.57813 -0.4375,-0.90625 -0.4375,-0.32813 -1.54687,-0.5625 -1.09375,-0.23438 -1.73438,-0.5625 -0.64062,-0.32813 -0.95312,-0.78125 -0.3125,-0.45313 -0.3125,-1.07813 0,-1.03125 0.875,-1.75 0.89062,-0.71875 2.25,-0.71875 1.4375,0 2.32812,0.75 0.90625,0.73438 0.90625,1.89063 h -1.45312 q 0,-0.59375 -0.51563,-1.01563 -0.5,-0.4375 -1.26562,-0.4375 -0.78125,0 -1.23438,0.34375 -0.4375,0.34375 -0.4375,0.89063 0,0.53125 0.40625,0.79687 0.42188,0.26563 1.5,0.51563 1.07813,0.23437 1.75,0.57812 0.67188,0.32813 1,0.79688 0.32813,0.46875 0.32813,1.15625 0,1.125 -0.90625,1.8125 -0.90625,0.6875 -2.35938,0.6875 -1.01562,0 -1.79687,-0.35938 -0.78125,-0.35937 -1.21875,-1 -0.4375,-0.65625 -0.4375,-1.40625 h 1.4375 q 0.0469,0.73438 0.57812,1.15625 0.54688,0.42188 1.4375,0.42188 0.82813,0 1.3125,-0.32813 0.5,-0.32812 0.5,-0.89062 z m 8.25,0 q 0,-0.57813 -0.4375,-0.90625 -0.4375,-0.32813 -1.54687,-0.5625 -1.09375,-0.23438 -1.73438,-0.5625 -0.64062,-0.32813 -0.95312,-0.78125 -0.3125,-0.45313 -0.3125,-1.07813 0,-1.03125 0.875,-1.75 0.89062,-0.71875 2.25,-0.71875 1.4375,0 2.32812,0.75 0.90625,0.73438 0.90625,1.89063 h -1.45312 q 0,-0.59375 -0.51563,-1.01563 -0.5,-0.4375 -1.26562,-0.4375 -0.78125,0 -1.23438,0.34375 -0.4375,0.34375 -0.4375,0.89063 0,0.53125 0.40625,0.79687 0.42188,0.26563 1.5,0.51563 1.07813,0.23437 1.75,0.57812 0.67188,0.32813 1,0.79688 0.32813,0.46875 0.32813,1.15625 0,1.125 -0.90625,1.8125 -0.90625,0.6875 -2.35938,0.6875 -1.01562,0 -1.79687,-0.35938 -0.78125,-0.35937 -1.21875,-1 -0.4375,-0.65625 -0.4375,-1.40625 h 1.4375 q 0.0469,0.73438 0.57812,1.15625 0.54688,0.42188 1.4375,0.42188 0.82813,0 1.3125,-0.32813 0.5,-0.32812 0.5,-0.89062 z m 8.00781,2.25 v -7.34375 h -1.34375 v -1.10938 h 1.34375 v -0.875 q 0,-1.35937 0.71875,-2.09375 0.73438,-0.75 2.0625,-0.75 0.5,0 0.98438,0.14063 l -0.0781,1.17187 q -0.35937,-0.0781 -0.78125,-0.0781 -0.70312,0 -1.09375,0.42187 -0.375,0.40625 -0.375,1.17188 v 0.89062 h 1.8125 v 1.10938 h -1.8125 v 7.34375 z m 10.05469,-0.84375 q -0.84375,1 -2.46875,1 -1.35937,0 -2.0625,-0.78125 -0.70312,-0.79688 -0.71875,-2.32813 v -5.5 h 1.45313 v 5.45313 q 0,1.92187 1.5625,1.92187 1.65625,0 2.20312,-1.23437 v -6.14063 h 1.4375 v 8.45313 h -1.375 z m 4.97656,-7.60938 0.0469,1.0625 q 0.96875,-1.21875 2.53125,-1.21875 2.67187,0 2.70312,3.01563 v 5.59375 h -1.45312 v -5.59375 q 0,-0.92188 -0.42188,-1.35938 -0.40625,-0.4375 -1.26562,-0.4375 -0.70313,0 -1.23438,0.375 -0.53125,0.375 -0.82812,0.98438 v 6.03125 h -1.45313 v -8.45313 z m 10.84375,7.42188 q 0.78125,0 1.35938,-0.46875 0.57812,-0.46875 0.64062,-1.17188 h 1.35938 q -0.0312,0.73438 -0.5,1.39063 -0.45313,0.65625 -1.23438,1.04687 -0.76562,0.39063 -1.625,0.39063 -1.71875,0 -2.75,-1.15625 -1.01562,-1.15625 -1.01562,-3.15625 v -0.23438 q 0,-1.23437 0.45312,-2.1875 0.45313,-0.96875 1.29688,-1.5 0.85937,-0.53125 2.01562,-0.53125 1.42188,0 2.35938,0.85938 0.9375,0.84375 1,2.20312 h -1.35938 q -0.0625,-0.82812 -0.625,-1.34375 -0.5625,-0.53125 -1.375,-0.53125 -1.10937,0 -1.71875,0.79688 -0.59375,0.78125 -0.59375,2.28125 v 0.28125 q 0,1.45312 0.59375,2.25 0.60938,0.78125 1.71875,0.78125 z m 6.95313,-9.46875 v 2.04687 h 1.57812 v 1.10938 h -1.57812 v 5.25 q 0,0.5 0.20312,0.76562 0.21875,0.25 0.71875,0.25 0.25,0 0.6875,-0.0937 v 1.17188 q -0.5625,0.15625 -1.10937,0.15625 -0.96875,0 -1.46875,-0.57813 -0.48438,-0.59375 -0.48438,-1.67187 v -5.25 h -1.53125 V 123.435 h 1.53125 v -2.04687 z m 4.83594,10.5 h -1.45313 v -8.45313 h 1.45313 z m -1.5625,-10.70313 q 0,-0.34375 0.20312,-0.57812 0.21875,-0.25 0.64063,-0.25 0.42187,0 0.64062,0.25 0.21875,0.23437 0.21875,0.59375 0,0.34375 -0.21875,0.57812 -0.21875,0.23438 -0.64062,0.23438 -0.42188,0 -0.64063,-0.23438 -0.20312,-0.23437 -0.20312,-0.59375 z m 3.49218,6.39063 q 0,-1.23438 0.48438,-2.21875 0.48437,-1 1.35937,-1.53125 0.875,-0.54688 1.98438,-0.54688 1.73437,0 2.79687,1.20313 1.0625,1.1875 1.0625,3.17187 v 0.0937 q 0,1.23438 -0.46875,2.21875 -0.46875,0.98438 -1.35937,1.53125 -0.875,0.54688 -2.01563,0.54688 -1.71875,0 -2.78125,-1.1875 -1.0625,-1.20313 -1.0625,-3.17188 z m 1.45313,0.17187 q 0,1.40625 0.64062,2.26563 0.65625,0.84375 1.75,0.84375 1.10938,0 1.75,-0.85938 0.65625,-0.85937 0.65625,-2.42187 0,-1.39063 -0.67187,-2.25 -0.65625,-0.85938 -1.75,-0.85938 -1.0625,0 -1.71875,0.85938 -0.65625,0.84375 -0.65625,2.42187 z m 9.42187,-4.3125 0.0469,1.0625 q 0.96875,-1.21875 2.53125,-1.21875 2.67187,0 2.70312,3.01563 v 5.59375 h -1.45312 v -5.59375 q 0,-0.92188 -0.42188,-1.35938 -0.40625,-0.4375 -1.26562,-0.4375 -0.70313,0 -1.23438,0.375 -0.53125,0.375 -0.82812,0.98438 v 6.03125 h -1.45313 v -8.45313 z"
     fill-rule="nonzero"
     id="path41" />
  <path
     fill="#000000"
     fill-opacity="0"
     d="m 341.56352,156.53989 h 220.18896 v 41.32284 H 341.56352 Z"
     fill-rule="evenodd"
     id="path43" />
  <path
     stroke="#ffffff"
     stroke-width="1"
     stroke-linejoin="round"
     stroke-linecap="butt"
     d="m 341.56352,156.53989 h 220.18896 v 41.32284 H 341.56352 Z"
     fill-rule="evenodd"
     id="path45" />
  <path
     fill="#ffffff"
     d="m 353.2354,183.06131 h -1.45313 v -12 h 1.45313 z m 1.92969,-4.3125 q 0,-1.23438 0.48437,-2.21875 0.48438,-1 1.35938,-1.53125 0.875,-0.54688 1.98437,-0.54688 1.73438,0 2.79688,1.20313 1.0625,1.1875 1.0625,3.17187 v 0.0937 q 0,1.23438 -0.46875,2.21875 -0.46875,0.98438 -1.35938,1.53125 -0.875,0.54688 -2.01562,0.54688 -1.71875,0 -2.78125,-1.1875 -1.0625,-1.20313 -1.0625,-3.17188 z m 1.45312,0.17187 q 0,1.40625 0.64063,2.26563 0.65625,0.84375 1.75,0.84375 1.10937,0 1.75,-0.85938 0.65625,-0.85937 0.65625,-2.42187 0,-1.39063 -0.67188,-2.25 -0.65625,-0.85938 -1.75,-0.85938 -1.0625,0 -1.71875,0.85938 -0.65625,0.84375 -0.65625,2.42187 z m 12.96875,1.89063 q 0,-0.57813 -0.4375,-0.90625 -0.4375,-0.32813 -1.54687,-0.5625 -1.09375,-0.23438 -1.73438,-0.5625 -0.64062,-0.32813 -0.95312,-0.78125 -0.3125,-0.45313 -0.3125,-1.07813 0,-1.03125 0.875,-1.75 0.89062,-0.71875 2.25,-0.71875 1.4375,0 2.32812,0.75 0.90625,0.73438 0.90625,1.89063 h -1.45312 q 0,-0.59375 -0.51563,-1.01563 -0.5,-0.4375 -1.26562,-0.4375 -0.78125,0 -1.23438,0.34375 -0.4375,0.34375 -0.4375,0.89063 0,0.53125 0.40625,0.79687 0.42188,0.26563 1.5,0.51563 1.07813,0.23437 1.75,0.57812 0.67188,0.32813 1,0.79688 0.32813,0.46875 0.32813,1.15625 0,1.125 -0.90625,1.8125 -0.90625,0.6875 -2.35938,0.6875 -1.01562,0 -1.79687,-0.35938 -0.78125,-0.35937 -1.21875,-1 -0.4375,-0.65625 -0.4375,-1.40625 h 1.4375 q 0.0469,0.73438 0.57812,1.15625 0.54688,0.42188 1.4375,0.42188 0.82813,0 1.3125,-0.32813 0.5,-0.32812 0.5,-0.89062 z m 8.25,0 q 0,-0.57813 -0.4375,-0.90625 -0.4375,-0.32813 -1.54687,-0.5625 -1.09375,-0.23438 -1.73438,-0.5625 -0.64062,-0.32813 -0.95312,-0.78125 -0.3125,-0.45313 -0.3125,-1.07813 0,-1.03125 0.875,-1.75 0.89062,-0.71875 2.25,-0.71875 1.4375,0 2.32812,0.75 0.90625,0.73438 0.90625,1.89063 h -1.45312 q 0,-0.59375 -0.51563,-1.01563 -0.5,-0.4375 -1.26562,-0.4375 -0.78125,0 -1.23438,0.34375 -0.4375,0.34375 -0.4375,0.89063 0,0.53125 0.40625,0.79687 0.42188,0.26563 1.5,0.51563 1.07813,0.23437 1.75,0.57812 0.67188,0.32813 1,0.79688 0.32813,0.46875 0.32813,1.15625 0,1.125 -0.90625,1.8125 -0.90625,0.6875 -2.35938,0.6875 -1.01562,0 -1.79687,-0.35938 -0.78125,-0.35937 -1.21875,-1 -0.4375,-0.65625 -0.4375,-1.40625 h 1.4375 q 0.0469,0.73438 0.57812,1.15625 0.54688,0.42188 1.4375,0.42188 0.82813,0 1.3125,-0.32813 0.5,-0.32812 0.5,-0.89062 z m 8.00781,2.25 v -7.34375 h -1.34375 v -1.10938 h 1.34375 v -0.875 q 0,-1.35937 0.71875,-2.09375 0.73438,-0.75 2.0625,-0.75 0.5,0 0.98438,0.14063 l -0.0781,1.17187 q -0.35937,-0.0781 -0.78125,-0.0781 -0.70312,0 -1.09375,0.42187 -0.375,0.40625 -0.375,1.17188 v 0.89062 h 1.8125 v 1.10938 h -1.8125 v 7.34375 z m 10.05469,-0.84375 q -0.84375,1 -2.46875,1 -1.35937,0 -2.0625,-0.78125 -0.70312,-0.79688 -0.71875,-2.32813 v -5.5 h 1.45313 v 5.45313 q 0,1.92187 1.5625,1.92187 1.65625,0 2.20312,-1.23437 v -6.14063 h 1.4375 v 8.45313 h -1.375 z m 4.97656,-7.60938 0.0469,1.0625 q 0.96875,-1.21875 2.53125,-1.21875 2.67187,0 2.70312,3.01563 v 5.59375 h -1.45312 v -5.59375 q 0,-0.92188 -0.42188,-1.35938 -0.40625,-0.4375 -1.26562,-0.4375 -0.70313,0 -1.23438,0.375 -0.53125,0.375 -0.82812,0.98438 v 6.03125 h -1.45313 v -8.45313 z m 10.84375,7.42188 q 0.78125,0 1.35938,-0.46875 0.57812,-0.46875 0.64062,-1.17188 h 1.35938 q -0.0312,0.73438 -0.5,1.39063 -0.45313,0.65625 -1.23438,1.04687 -0.76562,0.39063 -1.625,0.39063 -1.71875,0 -2.75,-1.15625 -1.01562,-1.15625 -1.01562,-3.15625 v -0.23438 q 0,-1.23437 0.45312,-2.1875 0.45313,-0.96875 1.29688,-1.5 0.85937,-0.53125 2.01562,-0.53125 1.42188,0 2.35938,0.85938 0.9375,0.84375 1,2.20312 h -1.35938 q -0.0625,-0.82812 -0.625,-1.34375 -0.5625,-0.53125 -1.375,-0.53125 -1.10937,0 -1.71875,0.79688 -0.59375,0.78125 -0.59375,2.28125 v 0.28125 q 0,1.45312 0.59375,2.25 0.60938,0.78125 1.71875,0.78125 z m 6.95313,-9.46875 v 2.04687 h 1.57812 v 1.10938 h -1.57812 v 5.25 q 0,0.5 0.20312,0.76562 0.21875,0.25 0.71875,0.25 0.25,0 0.6875,-0.0937 v 1.17188 q -0.5625,0.15625 -1.10937,0.15625 -0.96875,0 -1.46875,-0.57813 -0.48438,-0.59375 -0.48438,-1.67187 v -5.25 h -1.53125 v -1.10938 h 1.53125 v -2.04687 z m 4.83594,10.5 h -1.45313 v -8.45313 h 1.45313 z m -1.5625,-10.70313 q 0,-0.34375 0.20312,-0.57812 0.21875,-0.25 0.64063,-0.25 0.42187,0 0.64062,0.25 0.21875,0.23437 0.21875,0.59375 0,0.34375 -0.21875,0.57812 -0.21875,0.23438 -0.64062,0.23438 -0.42188,0 -0.64063,-0.23438 -0.20312,-0.23437 -0.20312,-0.59375 z m 3.49218,6.39063 q 0,-1.23438 0.48438,-2.21875 0.48437,-1 1.35937,-1.53125 0.875,-0.54688 1.98438,-0.54688 1.73437,0 2.79687,1.20313 1.0625,1.1875 1.0625,3.17187 v 0.0937 q 0,1.23438 -0.46875,2.21875 -0.46875,0.98438 -1.35937,1.53125 -0.875,0.54688 -2.01563,0.54688 -1.71875,0 -2.78125,-1.1875 -1.0625,-1.20313 -1.0625,-3.17188 z m 1.45313,0.17187 q 0,1.40625 0.64062,2.26563 0.65625,0.84375 1.75,0.84375 1.10938,0 1.75,-0.85938 0.65625,-0.85937 0.65625,-2.42187 0,-1.39063 -0.67187,-2.25 -0.65625,-0.85938 -1.75,-0.85938 -1.0625,0 -1.71875,0.85938 -0.65625,0.84375 -0.65625,2.42187 z m 9.42187,-4.3125 0.0469,1.0625 q 0.96875,-1.21875 2.53125,-1.21875 2.67187,0 2.70312,3.01563 v 5.59375 h -1.45312 v -5.59375 q 0,-0.92188 -0.42188,-1.35938 -0.40625,-0.4375 -1.26562,-0.4375 -0.70313,0 -1.23438,0.375 -0.53125,0.375 -0.82812,0.98438 v 6.03125 h -1.45313 v -8.45313 z"
     fill-rule="nonzero"
     id="path47" />
  <path
     fill="#000000"
     fill-opacity="0"
     d="m 341.56352,209.26167 h 220.18896 v 41.32284 H 341.56352 Z"
     fill-rule="evenodd"
     id="path49" />
  <path
     stroke="#ffffff"
     stroke-width="1"
     stroke-linejoin="round"
     stroke-linecap="butt"
     d="m 341.56352,209.26167 h 220.18896 v 41.32284 H 341.56352 Z"
     fill-rule="evenodd"
     id="path51" />
  <path
     fill="#ffffff"
     d="m 351.71977,235.01747 q 0,-0.375 0.21875,-0.625 0.23437,-0.25 0.67187,-0.25 0.45313,0 0.67188,0.25 0.23437,0.25 0.23437,0.625 0,0.35937 -0.23437,0.60937 -0.21875,0.25 -0.67188,0.25 -0.4375,0 -0.67187,-0.25 -0.21875,-0.25 -0.21875,-0.60937 z m 3.42187,0 q 0,-0.375 0.21875,-0.625 0.23438,-0.25 0.67188,-0.25 0.45312,0 0.67187,0.25 0.23438,0.25 0.23438,0.625 0,0.35937 -0.23438,0.60937 -0.21875,0.25 -0.67187,0.25 -0.4375,0 -0.67188,-0.25 -0.21875,-0.25 -0.21875,-0.60937 z m 3.23438,0 q 0,-0.375 0.21875,-0.625 0.23437,-0.25 0.67187,-0.25 0.45313,0 0.67188,0.25 0.23437,0.25 0.23437,0.625 0,0.35937 -0.23437,0.60937 -0.21875,0.25 -0.67188,0.25 -0.4375,0 -0.67187,-0.25 -0.21875,-0.25 -0.21875,-0.60937 z"
     fill-rule="nonzero"
     id="path53" />
</svg>
