<svg version="1.1" viewBox="0.0 0.0 960.0 540.0" fill="none" stroke="none" stroke-linecap="square" stroke-miterlimit="10" xmlns:xlink="http://www.w3.org/1999/xlink" xmlns="http://www.w3.org/2000/svg"><clipPath id="g32cad5d839f_0_0.0"><path d="m0 0l960.0 0l0 540.0l-960.0 0l0 -540.0z" clip-rule="nonzero"/></clipPath><g clip-path="url(#g32cad5d839f_0_0.0)"><path fill="#ffffff" d="m0 0l960.0 0l0 540.0l-960.0 0z" fill-rule="evenodd"/><path fill="#000000" fill-opacity="0.0" d="m59.952755 37.636482l840.0945 0l0 352.66144l-840.0945 0z" fill-rule="evenodd"/><path stroke="#595959" stroke-width="1.3779527559055118" stroke-linejoin="round" stroke-linecap="butt" d="m59.952755 37.636482l840.0945 0l0 352.66144l-840.0945 0z" fill-rule="evenodd"/><path fill="#000000" d="m93.80939 73.59856q0 -0.734375 -0.21875 -1.296875q-0.21875 -0.578125 -0.78125 -1.03125q-0.546875 -0.453125 -1.515625 -0.875q-0.96875 -0.421875 -2.453125 -0.84375q-1.546875 -0.46875 -2.796875 -1.03125q-1.25 -0.5625 -2.140625 -1.296875q-0.890625 -0.734375 -1.359375 -1.671875q-0.46875 -0.953125 -0.46875 -2.171875q0 -1.234375 0.5 -2.265625q0.5 -1.03125 1.4375 -1.796875q0.9375 -0.765625 2.25 -1.1875q1.3125 -0.4375 2.921875 -0.4375q2.34375 0 3.984375 0.90625q1.65625 0.890625 2.515625 2.328125q0.859375 1.4375 0.859375 3.078125l-2.75 0q0 -1.171875 -0.515625 -2.078125q-0.5 -0.921875 -1.515625 -1.4375q-1.015625 -0.53125 -2.578125 -0.53125q-1.484375 0 -2.453125 0.453125q-0.953125 0.4375 -1.421875 1.203125q-0.46875 0.75 -0.46875 1.734375q0 0.65625 0.28125 1.203125q0.28125 0.53125 0.875 1.0q0.59375 0.453125 1.515625 0.84375q0.9375 0.375 2.21875 0.734375q1.78125 0.5 3.078125 1.125q1.296875 0.609375 2.125 1.390625q0.84375 0.765625 1.25 1.734375q0.421875 0.96875 0.421875 2.1875q0 1.28125 -0.515625 2.3125q-0.515625 1.03125 -1.484375 1.765625q-0.96875 0.734375 -2.3125 1.125q-1.328125 0.390625 -2.984375 0.390625q-1.453125 0 -2.859375 -0.390625q-1.390625 -0.40625 -2.53125 -1.203125q-1.140625 -0.8125 -1.828125 -2.0q-0.6875 -1.1875 -0.6875 -2.75l2.765625 0q0 1.078125 0.40625 1.84375q0.421875 0.765625 1.140625 1.28125q0.734375 0.5 1.65625 0.734375q0.9375 0.234375 1.9375 0.234375q1.453125 0 2.453125 -0.390625q1.0 -0.40625 1.515625 -1.15625q0.53125 -0.75 0.53125 -1.765625zm12.366211 5.5625q-1.625 0 -2.9375 -0.546875q-1.3125 -0.546875 -2.25 -1.546875q-0.9375 -1.015625 -1.453125 -2.390625q-0.5 -1.375 -0.5 -3.015625l0 -0.609375q0 -1.890625 0.5625 -3.375q0.5625 -1.484375 1.515625 -2.515625q0.96875 -1.046875 2.1875 -1.578125q1.21875 -0.53125 2.53125 -0.53125q1.671875 0 2.875 0.578125q1.21875 0.578125 1.984375 1.609375q0.78125 1.015625 1.15625 2.40625q0.375 1.390625 0.375 3.015625l0 1.203125l-11.59375 0l0 -2.171875l8.9375 0l0 -0.203125q-0.0625 -1.03125 -0.421875 -2.0q-0.359375 -0.984375 -1.15625 -1.609375q-0.796875 -0.640625 -2.15625 -0.640625q-0.90625 0 -1.671875 0.390625q-0.75 0.375 -1.296875 1.125q-0.546875 0.734375 -0.859375 1.8125q-0.296875 1.078125 -0.296875 2.484375l0 0.609375q0 1.109375 0.3125 2.078125q0.3125 0.96875 0.90625 1.703125q0.59375 0.71875 1.453125 1.140625q0.859375 0.421875 1.9375 0.421875q1.40625 0 2.375 -0.578125q0.984375 -0.578125 1.71875 -1.53125l1.609375 1.265625q-0.5 0.765625 -1.28125 1.453125q-0.765625 0.6875 -1.890625 1.125q-1.125 0.421875 -2.671875 0.421875zm11.796478 -12.734375l0 12.453125l-2.671875 0l0 -15.53125l2.515625 0l0.15625 3.078125zm-0.546875 4.09375l-1.234375 -0.046875q0.015625 -1.59375 0.40625 -2.9375q0.40625 -1.359375 1.1875 -2.359375q0.796875 -1.015625 1.96875 -1.5625q1.1875 -0.5625 2.734375 -0.5625q1.09375 0 2.015625 0.3125q0.921875 0.3125 1.59375 0.96875q0.671875 0.65625 1.046875 1.703125q0.375 1.03125 0.375 2.484375l0 10.359375l-2.65625 0l0 -10.21875q0 -1.21875 -0.421875 -1.953125q-0.40625 -0.734375 -1.15625 -1.0625q-0.734375 -0.34375 -1.75 -0.34375q-1.171875 0 -1.96875 0.421875q-0.78125 0.40625 -1.265625 1.140625q-0.46875 0.734375 -0.671875 1.671875q-0.203125 0.9375 -0.203125 1.984375zm10.0625 -1.46875l-1.78125 0.546875q0.015625 -1.265625 0.421875 -2.4375q0.40625 -1.1875 1.1875 -2.109375q0.78125 -0.921875 1.921875 -1.453125q1.15625 -0.546875 2.640625 -0.546875q1.25 0 2.21875 0.34375q0.96875 0.328125 1.640625 1.015625q0.671875 0.671875 1.015625 1.734375q0.34375 1.0625 0.34375 2.53125l0 10.203125l-2.671875 0l0 -10.234375q0 -1.3125 -0.421875 -2.03125q-0.40625 -0.734375 -1.140625 -1.015625q-0.734375 -0.296875 -1.765625 -0.296875q-0.875 0 -1.546875 0.296875q-0.671875 0.296875 -1.140625 0.828125q-0.453125 0.515625 -0.6875 1.203125q-0.234375 0.671875 -0.234375 1.421875z" fill-rule="nonzero"/><path fill="#aa79c1" d="m91.00887 108.26208l377.3543 0l0 118.80314l-377.3543 0z" fill-rule="evenodd"/><path stroke="#ffffff" stroke-width="1.3779527559055118" stroke-linejoin="round" stroke-linecap="butt" d="m91.00887 108.26208l377.3543 0l0 118.80314l-377.3543 0z" fill-rule="evenodd"/><path fill="#ffffff" d="m105.16512 170.23586l0 -0.296875q0 -1.46875 0.421875 -2.734375q0.4375 -1.265625 1.234375 -2.1875q0.8125 -0.9375 1.953125 -1.453125q1.140625 -0.53125 2.5625 -0.53125q1.4375 0 2.578125 0.53125q1.15625 0.515625 1.953125 1.453125q0.8125 0.921875 1.234375 2.1875q0.4375 1.265625 0.4375 2.734375l0 0.296875q0 1.46875 -0.4375 2.734375q-0.421875 1.25 -1.234375 2.1875q-0.796875 0.921875 -1.9375 1.453125q-1.140625 0.515625 -2.578125 0.515625q-1.421875 0 -2.578125 -0.515625q-1.140625 -0.53125 -1.953125 -1.453125q-0.796875 -0.9375 -1.234375 -2.1875q-0.421875 -1.265625 -0.421875 -2.734375zm2.328125 -0.296875l0 0.296875q0 1.015625 0.234375 1.921875q0.234375 0.890625 0.71875 1.578125q0.484375 0.6875 1.21875 1.09375q0.734375 0.390625 1.6875 0.390625q0.96875 0 1.6875 -0.390625q0.71875 -0.40625 1.1875 -1.09375q0.484375 -0.6875 0.734375 -1.578125q0.25 -0.90625 0.25 -1.921875l0 -0.296875q0 -1.0 -0.25 -1.890625q-0.25 -0.90625 -0.734375 -1.609375q-0.484375 -0.703125 -1.203125 -1.09375q-0.71875 -0.40625 -1.6875 -0.40625q-0.953125 0 -1.6875 0.40625q-0.71875 0.390625 -1.203125 1.09375q-0.484375 0.703125 -0.71875 1.609375q-0.234375 0.890625 -0.234375 1.890625zm12.957886 -12.359375l2.328125 0l0 16.65625l-0.203125 2.640625l-2.125 0l0 -19.296875zm11.515617 12.390625l0 0.265625q0 1.46875 -0.359375 2.734375q-0.34375 1.265625 -1.03125 2.203125q-0.671875 0.921875 -1.65625 1.4375q-0.9687424 0.515625 -2.2499924 0.515625q-1.28125 0 -2.265625 -0.4375q-0.96875 -0.453125 -1.640625 -1.296875q-0.65625 -0.84375 -1.0625 -2.03125q-0.390625 -1.203125 -0.546875 -2.6875l0 -1.15625q0.15625 -1.515625 0.546875 -2.703125q0.40625 -1.203125 1.0625 -2.046875q0.671875 -0.84375 1.640625 -1.28125q0.96875 -0.453125 2.25 -0.453125q1.28125 0 2.2656174 0.5q1.0 0.484375 1.671875 1.40625q0.671875 0.921875 1.015625 2.203125q0.359375 1.265625 0.359375 2.828125zm-2.34375 0.265625l0 -0.265625q0 -1.015625 -0.1875 -1.90625q-0.1875 -0.90625 -0.609375 -1.59375q-0.40625 -0.6875 -1.0937424 -1.078125q-0.671875 -0.40625 -1.65625 -0.40625q-0.875 0 -1.53125 0.3125q-0.640625 0.296875 -1.09375 0.8125q-0.453125 0.5 -0.734375 1.15625q-0.28125 0.640625 -0.421875 1.328125l0 3.03125q0.203125 0.875 0.65625 1.6875q0.453125 0.8125 1.21875 1.328125q0.78125 0.515625 1.921875 0.515625q0.953125 0 1.625 -0.375q0.6718674 -0.390625 1.0937424 -1.0625q0.421875 -0.6875 0.609375 -1.578125q0.203125 -0.890625 0.203125 -1.90625zm13.200455 3.03125q0 -0.5 -0.21875 -0.921875q-0.21875 -0.4375 -0.890625 -0.796875q-0.671875 -0.359375 -2.015625 -0.625q-1.140625 -0.234375 -2.046875 -0.5625q-0.90625 -0.328125 -1.546875 -0.796875q-0.625 -0.46875 -0.96875 -1.09375q-0.34375 -0.625 -0.34375 -1.46875q0 -0.8125 0.359375 -1.515625q0.359375 -0.71875 1.015625 -1.265625q0.65625 -0.5625 1.578125 -0.875q0.9375 -0.3125 2.09375 -0.3125q1.625 0 2.78125 0.578125q1.15625 0.578125 1.765625 1.546875q0.625 0.953125 0.625 2.125l-2.328125 0q0 -0.578125 -0.328125 -1.109375q-0.328125 -0.53125 -0.96875 -0.875q-0.640625 -0.359375 -1.546875 -0.359375q-0.96875 0 -1.578125 0.296875q-0.59375 0.296875 -0.859375 0.75q-0.265625 0.453125 -0.265625 0.953125q0 0.375 0.125 0.671875q0.140625 0.296875 0.46875 0.546875q0.34375 0.234375 0.953125 0.453125q0.625 0.21875 1.578125 0.421875q1.671875 0.375 2.75 0.90625q1.078125 0.53125 1.609375 1.296875q0.53125 0.765625 0.53125 1.859375q0 0.890625 -0.375 1.640625q-0.375 0.734375 -1.078125 1.265625q-0.6875 0.53125 -1.65625 0.828125q-0.953125 0.296875 -2.140625 0.296875q-1.796875 0 -3.046875 -0.640625q-1.25 -0.640625 -1.890625 -1.65625q-0.640625 -1.015625 -0.640625 -2.15625l2.34375 0q0.046875 0.96875 0.546875 1.53125q0.515625 0.546875 1.234375 0.78125q0.734375 0.234375 1.453125 0.234375q0.953125 0 1.59375 -0.25q0.65625 -0.25 0.984375 -0.6875q0.34375 -0.453125 0.34375 -1.015625zm11.00061 3.859375q-1.40625 0 -2.5625 -0.484375q-1.15625 -0.484375 -1.984375 -1.359375q-0.8125 -0.875 -1.25 -2.078125q-0.4375 -1.21875 -0.4375 -2.65625l0 -0.515625q0 -1.65625 0.484375 -2.953125q0.5 -1.3125 1.328125 -2.21875q0.84375 -0.90625 1.90625 -1.359375q1.078125 -0.46875 2.21875 -0.46875q1.453125 0 2.515625 0.5q1.0625 0.5 1.734375 1.40625q0.6875 0.890625 1.015625 2.109375q0.328125 1.203125 0.328125 2.640625l0 1.046875l-10.15625 0l0 -1.90625l7.828125 0l0 -0.171875q-0.046875 -0.90625 -0.375 -1.75q-0.3125 -0.859375 -1.0 -1.40625q-0.6875 -0.5625 -1.890625 -0.5625q-0.78125 0 -1.453125 0.34375q-0.671875 0.328125 -1.15625 0.984375q-0.46875 0.640625 -0.734375 1.59375q-0.265625 0.9375 -0.265625 2.171875l0 0.515625q0 0.96875 0.265625 1.828125q0.28125 0.84375 0.796875 1.484375q0.53125 0.640625 1.265625 1.015625q0.75 0.359375 1.71875 0.359375q1.21875 0 2.078125 -0.5q0.859375 -0.515625 1.5 -1.359375l1.40625 1.125q-0.4375 0.671875 -1.125 1.28125q-0.671875 0.59375 -1.65625 0.96875q-0.984375 0.375 -2.34375 0.375zm10.3337555 -11.703125l0 11.453125l-2.328125 0l0 -13.59375l2.265625 0l0.0625 2.140625zm4.25 -2.21875l-0.015625 2.15625q-0.28125 -0.0625 -0.546875 -0.078125q-0.25 -0.015625 -0.578125 -0.015625q-0.8125 0 -1.421875 0.25q-0.609375 0.25 -1.046875 0.703125q-0.421875 0.453125 -0.671875 1.078125q-0.25 0.625 -0.3125 1.359375l-0.65625 0.375q0 -1.234375 0.234375 -2.3125q0.25 -1.078125 0.765625 -1.90625q0.515625 -0.84375 1.3125 -1.3125q0.796875 -0.46875 1.90625 -0.46875q0.25 0 0.578125 0.0625q0.328125 0.046875 0.453125 0.109375zm6.5092926 11.578125l3.71875 -11.5l2.375 0l-4.890625 13.59375l-1.5625 0l0.359375 -2.09375zm-3.109375 -11.5l3.84375 11.5625l0.265625 2.03125l-1.5625 0l-4.921875 -13.59375l2.375 0zm16.911057 13.84375q-1.40625 0 -2.5625 -0.484375q-1.15625 -0.484375 -1.984375 -1.359375q-0.8125 -0.875 -1.25 -2.078125q-0.4375 -1.21875 -0.4375 -2.65625l0 -0.515625q0 -1.65625 0.484375 -2.953125q0.5 -1.3125 1.328125 -2.21875q0.84375 -0.90625 1.90625 -1.359375q1.078125 -0.46875 2.21875 -0.46875q1.453125 0 2.515625 0.5q1.0625 0.5 1.734375 1.40625q0.6875 0.890625 1.015625 2.109375q0.328125 1.203125 0.328125 2.640625l0 1.046875l-10.15625 0l0 -1.90625l7.828125 0l0 -0.171875q-0.046875 -0.90625 -0.375 -1.75q-0.3125 -0.859375 -1.0 -1.40625q-0.6875 -0.5625 -1.890625 -0.5625q-0.78125 0 -1.453125 0.34375q-0.671875 0.328125 -1.15625 0.984375q-0.46875 0.640625 -0.734375 1.59375q-0.265625 0.9375 -0.265625 2.171875l0 0.515625q0 0.96875 0.265625 1.828125q0.28125 0.84375 0.796875 1.484375q0.53125 0.640625 1.265625 1.015625q0.75 0.359375 1.71875 0.359375q1.21875 0 2.078125 -0.5q0.859375 -0.515625 1.5 -1.359375l1.40625 1.125q-0.4375 0.671875 -1.125 1.28125q-0.671875 0.59375 -1.65625 0.96875q-0.984375 0.375 -2.34375 0.375zm16.583755 -2.890625l0 -16.65625l2.328125 0l0 19.296875l-2.125 0l-0.203125 -2.640625zm-9.15625 -4.0l0 -0.265625q0 -1.5625 0.375 -2.828125q0.390625 -1.28125 1.09375 -2.203125q0.71875 -0.921875 1.703125 -1.40625q1.0 -0.5 2.21875 -0.5q1.28125 0 2.234375 0.453125q0.96875 0.4375 1.640625 1.28125q0.671875 0.84375 1.0625 2.046875q0.390625 1.1875 0.53125 2.703125l0 1.15625q-0.140625 1.484375 -0.53125 2.6875q-0.390625 1.1875 -1.0625 2.03125q-0.671875 0.84375 -1.640625 1.296875q-0.96875 0.4375 -2.265625 0.4375q-1.1875 0 -2.1875 -0.515625q-0.984375 -0.515625 -1.703125 -1.4375q-0.703125 -0.9375 -1.09375 -2.203125q-0.375 -1.265625 -0.375 -2.734375zm2.34375 -0.265625l0 0.265625q0 1.015625 0.203125 1.90625q0.21875 0.890625 0.65625 1.578125q0.4375 0.671875 1.109375 1.0625q0.6875 0.375 1.625 0.375q1.15625 0 1.90625 -0.484375q0.75 -0.5 1.203125 -1.296875q0.453125 -0.8125 0.703125 -1.75l0 -3.03125q-0.15625 -0.6875 -0.4375 -1.328125q-0.28125 -0.65625 -0.734375 -1.15625q-0.4375 -0.515625 -1.09375 -0.8125q-0.640625 -0.3125 -1.515625 -0.3125q-0.96875 0 -1.65625 0.40625q-0.671875 0.390625 -1.109375 1.078125q-0.4375 0.6875 -0.65625 1.59375q-0.203125 0.890625 -0.203125 1.90625z" fill-rule="nonzero"/><path fill="#60ad51" d="m91.00887 243.47215l377.3543 0l0 118.80315l-377.3543 0z" fill-rule="evenodd"/><path stroke="#ffffff" stroke-width="1.3779527559055118" stroke-linejoin="round" stroke-linecap="butt" d="m91.00887 243.47215l377.3543 0l0 118.80315l-377.3543 0z" fill-rule="evenodd"/><path fill="#ffffff" d="m108.30575 298.4928l0 13.59375l-2.34375 0l0 -13.59375l2.34375 0zm-2.515625 -3.609375q0 -0.5625 0.34375 -0.953125q0.34375 -0.390625 1.03125 -0.390625q0.65625 0 1.015625 0.390625q0.359375 0.390625 0.359375 0.953125q0 0.546875 -0.359375 0.9375q-0.359375 0.375 -1.015625 0.375q-0.6875 0 -1.03125 -0.375q-0.34375 -0.390625 -0.34375 -0.9375zm8.55455 6.3125l0 10.890625l-2.328125 0l0 -13.59375l2.203125 0l0.125 2.703125zm-0.46875 3.578125l-1.078125 -0.03125q0 -1.40625 0.34375 -2.59375q0.359375 -1.1875 1.046875 -2.0625q0.703125 -0.875 1.734375 -1.359375q1.03125 -0.484375 2.390625 -0.484375q0.953125 0 1.75 0.265625q0.8125 0.265625 1.390625 0.84375q0.59375 0.578125 0.921875 1.484375q0.328125 0.90625 0.328125 2.1875l0 9.0625l-2.328125 0l0 -8.953125q0 -1.0625 -0.359375 -1.703125q-0.34375 -0.640625 -1.0 -0.9375q-0.65625 -0.296875 -1.53125 -0.296875q-1.03125 0 -1.734375 0.375q-0.6875 0.359375 -1.109375 1.0q-0.40625 0.640625 -0.59375 1.46875q-0.171875 0.8125 -0.171875 1.734375zm8.8125 -1.28125l-1.5625 0.46875q0.015625 -1.109375 0.359375 -2.140625q0.359375 -1.03125 1.046875 -1.828125q0.6875 -0.8125 1.6875 -1.28125q1.015625 -0.46875 2.3125 -0.46875q1.09375 0 1.9374924 0.296875q0.84375 0.28125 1.421875 0.875q0.59375 0.59375 0.890625 1.53125q0.3125 0.921875 0.3125 2.203125l0 8.9375l-2.34375 0l0 -8.953125q0 -1.15625 -0.359375 -1.78125q-0.359375 -0.640625 -1.0156174 -0.890625q-0.640625 -0.265625 -1.53125 -0.265625q-0.765625 0 -1.359375 0.265625q-0.578125 0.265625 -0.984375 0.734375q-0.40625 0.453125 -0.609375 1.046875q-0.203125 0.578125 -0.203125 1.25zm14.239708 -2.390625l0 16.21875l-2.328125 0l0 -18.828125l2.125 0l0.203125 2.609375zm9.15625 4.078125l0 0.265625q0 1.46875 -0.359375 2.734375q-0.34375 1.265625 -1.015625 2.203125q-0.671875 0.921875 -1.65625 1.4375q-0.96875 0.515625 -2.234375 0.515625q-1.296875 0 -2.296875 -0.421875q-0.984375 -0.4375 -1.6875 -1.25q-0.6875 -0.8125 -1.09375 -1.953125q-0.40625 -1.15625 -0.5625 -2.578125l0 -1.40625q0.15625 -1.515625 0.5625 -2.703125q0.421875 -1.203125 1.109375 -2.046875q0.6875 -0.84375 1.65625 -1.28125q0.984375 -0.453125 2.265625 -0.453125q1.28125 0 2.265625 0.5q1.0 0.484375 1.671875 1.40625q0.6875 0.921875 1.03125 2.203125q0.34375 1.265625 0.34375 2.828125zm-2.328125 0.265625l0 -0.265625q0 -1.015625 -0.21875 -1.90625q-0.203125 -0.90625 -0.65625 -1.59375q-0.453125 -0.6875 -1.140625 -1.078125q-0.6875 -0.40625 -1.640625 -0.40625q-0.875 0 -1.53125 0.3125q-0.640625 0.296875 -1.09375 0.8125q-0.453125 0.5 -0.734375 1.15625q-0.28125 0.640625 -0.421875 1.328125l0 3.25q0.25 0.890625 0.703125 1.671875q0.453125 0.765625 1.203125 1.234375q0.75 0.46875 1.890625 0.46875q0.953125 0 1.625 -0.390625q0.6875 -0.40625 1.140625 -1.09375q0.453125 -0.6875 0.65625 -1.578125q0.21875 -0.90625 0.21875 -1.921875zm7.8254547 -12.65625l0 19.296875l-2.34375 0l0 -19.296875l2.34375 0zm6.257675 5.703125l0 13.59375l-2.34375 0l0 -13.59375l2.34375 0zm-2.515625 -3.609375q0 -0.5625 0.34375 -0.953125q0.34375 -0.390625 1.03125 -0.390625q0.65625 0 1.015625 0.390625q0.359375 0.390625 0.359375 0.953125q0 0.546875 -0.359375 0.9375q-0.359375 0.375 -1.015625 0.375q-0.6875 0 -1.03125 -0.375q-0.34375 -0.390625 -0.34375 -0.9375zm11.882675 17.453125q-1.40625 0 -2.5625 -0.484375q-1.15625 -0.484375 -1.984375 -1.359375q-0.8125 -0.875 -1.25 -2.078125q-0.4375 -1.21875 -0.4375 -2.65625l0 -0.515625q0 -1.65625 0.484375 -2.953125q0.5 -1.3125 1.328125 -2.21875q0.84375 -0.90625 1.90625 -1.359375q1.078125 -0.46875 2.21875 -0.46875q1.453125 0 2.515625 0.5q1.0625 0.5 1.734375 1.40625q0.6875 0.890625 1.015625 2.109375q0.328125 1.203125 0.328125 2.640625l0 1.046875l-10.15625 0l0 -1.90625l7.828125 0l0 -0.171875q-0.046875 -0.90625 -0.375 -1.75q-0.3125 -0.859375 -1.0 -1.40625q-0.6875 -0.5625 -1.890625 -0.5625q-0.78125 0 -1.453125 0.34375q-0.671875 0.328125 -1.15625 0.984375q-0.46875 0.640625 -0.734375 1.59375q-0.265625 0.9375 -0.265625 2.171875l0 0.515625q0 0.96875 0.265625 1.828125q0.28125 0.84375 0.796875 1.484375q0.53125 0.640625 1.265625 1.015625q0.75 0.359375 1.71875 0.359375q1.21875 0 2.078125 -0.5q0.859375 -0.515625 1.5 -1.359375l1.40625 1.125q-0.4375 0.671875 -1.125 1.28125q-0.671875 0.59375 -1.65625 0.96875q-0.984375 0.375 -2.34375 0.375zm16.583755 -2.890625l0 -16.65625l2.328125 0l0 19.296875l-2.125 0l-0.203125 -2.640625zm-9.15625 -4.0l0 -0.265625q0 -1.5625 0.375 -2.828125q0.390625 -1.28125 1.09375 -2.203125q0.71875 -0.921875 1.703125 -1.40625q1.0 -0.5 2.21875 -0.5q1.28125 0 2.234375 0.453125q0.96875 0.4375 1.640625 1.28125q0.671875 0.84375 1.0625 2.046875q0.390625 1.1875 0.53125 2.703125l0 1.15625q-0.140625 1.484375 -0.53125 2.6875q-0.390625 1.1875 -1.0625 2.03125q-0.671875 0.84375 -1.640625 1.296875q-0.96875 0.4375 -2.265625 0.4375q-1.1875 0 -2.1875 -0.515625q-0.984375 -0.515625 -1.703125 -1.4375q-0.703125 -0.9375 -1.09375 -2.203125q-0.375 -1.265625 -0.375 -2.734375zm2.34375 -0.265625l0 0.265625q0 1.015625 0.203125 1.90625q0.21875 0.890625 0.65625 1.578125q0.4375 0.671875 1.109375 1.0625q0.6875 0.375 1.625 0.375q1.15625 0 1.90625 -0.484375q0.75 -0.5 1.203125 -1.296875q0.453125 -0.8125 0.703125 -1.75l0 -3.03125q-0.15625 -0.6875 -0.4375 -1.328125q-0.28125 -0.65625 -0.734375 -1.15625q-0.4375 -0.515625 -1.09375 -0.8125q-0.640625 -0.3125 -1.515625 -0.3125q-0.96875 0 -1.65625 0.40625q-0.671875 0.390625 -1.109375 1.078125q-0.4375 0.6875 -0.65625 1.59375q-0.203125 0.890625 -0.203125 1.90625z" fill-rule="nonzero"/><path fill="#4063d8" d="m493.17108 108.26208l377.3543 0l0 252.6614l-377.3543 0z" fill-rule="evenodd"/><path stroke="#ffffff" stroke-width="1.3779527559055118" stroke-linejoin="round" stroke-linecap="butt" d="m493.17108 108.26208l377.3543 0l0 252.6614l-377.3543 0z" fill-rule="evenodd"/><path fill="#ffffff" d="m510.46796 126.67803l0 19.296867l-2.34375 0l0 -19.296867l2.34375 0zm3.1170654 12.656242l0 -0.296875q0 -1.46875 0.421875 -2.734375q0.4375 -1.265625 1.234375 -2.1875q0.8125 -0.9375 1.953125 -1.453125q1.140625 -0.53125 2.5625 -0.53125q1.4375 0 2.578125 0.53125q1.15625 0.515625 1.953125 1.453125q0.8125 0.921875 1.234375 2.1875q0.4375 1.265625 0.4375 2.734375l0 0.296875q0 1.46875 -0.4375 2.734375q-0.421875 1.25 -1.234375 2.1875q-0.796875 0.921875 -1.9375 1.453125q-1.140625 0.515625 -2.578125 0.515625q-1.421875 0 -2.578125 -0.515625q-1.140625 -0.53125 -1.953125 -1.453125q-0.796875 -0.9375 -1.234375 -2.1875q-0.421875 -1.265625 -0.421875 -2.734375zm2.328125 -0.296875l0 0.296875q0 1.015625 0.234375 1.921875q0.234375 0.890625 0.71875 1.578125q0.484375 0.6875 1.21875 1.09375q0.734375 0.390625 1.6875 0.390625q0.96875 0 1.6875 -0.390625q0.71875 -0.40625 1.1875 -1.09375q0.484375 -0.6875 0.734375 -1.578125q0.25 -0.90625 0.25 -1.921875l0 -0.296875q0 -1.0 -0.25 -1.890625q-0.25 -0.90625 -0.734375 -1.609375q-0.484375 -0.703125 -1.203125 -1.09375q-0.71875 -0.40625 -1.6875 -0.40625q-0.953125 0 -1.6875 0.40625q-0.71875 0.390625 -1.203125 1.09375q-0.484375 0.703125 -0.71875 1.609375q-0.234375 0.890625 -0.234375 1.890625zm20.87976 3.328125q0 -0.5 -0.21875 -0.921875q-0.21875 -0.4375 -0.890625 -0.796875q-0.671875 -0.359375 -2.015625 -0.625q-1.140625 -0.234375 -2.046875 -0.5625q-0.90625 -0.328125 -1.546875 -0.796875q-0.625 -0.46875 -0.96875 -1.09375q-0.34375 -0.625 -0.34375 -1.46875q0 -0.8125 0.359375 -1.515625q0.359375 -0.71875 1.015625 -1.265625q0.65625 -0.5625 1.578125 -0.875q0.9375 -0.3125 2.09375 -0.3125q1.625 0 2.78125 0.578125q1.15625 0.578125 1.765625 1.546875q0.625 0.953125 0.625 2.125l-2.328125 0q0 -0.578125 -0.328125 -1.109375q-0.328125 -0.53125 -0.96875 -0.875q-0.640625 -0.359375 -1.546875 -0.359375q-0.96875 0 -1.578125 0.296875q-0.59375 0.296875 -0.859375 0.75q-0.265625 0.453125 -0.265625 0.953125q0 0.375 0.125 0.671875q0.140625 0.296875 0.46875 0.546875q0.34375 0.234375 0.953125 0.453125q0.625 0.21875 1.578125 0.421875q1.671875 0.375 2.75 0.90625q1.078125 0.53125 1.609375 1.296875q0.53125 0.765625 0.53125 1.859375q0 0.890625 -0.375 1.640625q-0.375 0.734375 -1.078125 1.265625q-0.6875 0.53125 -1.65625 0.828125q-0.953125 0.296875 -2.140625 0.296875q-1.796875 0 -3.046875 -0.640625q-1.25 -0.640625 -1.890625 -1.65625q-0.640625 -1.015625 -0.640625 -2.15625l2.34375 0q0.046875 0.96875 0.546875 1.53125q0.515625 0.546875 1.234375 0.78125q0.734375 0.234375 1.453125 0.234375q0.953125 0 1.59375 -0.25q0.65625 -0.25 0.984375 -0.6875q0.34375 -0.453125 0.34375 -1.015625zm13.28186 0q0 -0.5 -0.21875 -0.921875q-0.21875 -0.4375 -0.890625 -0.796875q-0.671875 -0.359375 -2.015625 -0.625q-1.140625 -0.234375 -2.046875 -0.5625q-0.90625 -0.328125 -1.546875 -0.796875q-0.625 -0.46875 -0.96875 -1.09375q-0.34375 -0.625 -0.34375 -1.46875q0 -0.8125 0.359375 -1.515625q0.359375 -0.71875 1.015625 -1.265625q0.65625 -0.5625 1.578125 -0.875q0.9375 -0.3125 2.09375 -0.3125q1.625 0 2.78125 0.578125q1.15625 0.578125 1.765625 1.546875q0.625 0.953125 0.625 2.125l-2.328125 0q0 -0.578125 -0.328125 -1.109375q-0.328125 -0.53125 -0.96875 -0.875q-0.640625 -0.359375 -1.546875 -0.359375q-0.96875 0 -1.578125 0.296875q-0.59375 0.296875 -0.859375 0.75q-0.265625 0.453125 -0.265625 0.953125q0 0.375 0.125 0.671875q0.140625 0.296875 0.46875 0.546875q0.34375 0.234375 0.953125 0.453125q0.625 0.21875 1.578125 0.421875q1.671875 0.375 2.75 0.90625q1.078125 0.53125 1.609375 1.296875q0.53125 0.765625 0.53125 1.859375q0 0.890625 -0.375 1.640625q-0.375 0.734375 -1.078125 1.265625q-0.6875 0.53125 -1.65625 0.828125q-0.953125 0.296875 -2.140625 0.296875q-1.796875 0 -3.046875 -0.640625q-1.25 -0.640625 -1.890625 -1.65625q-0.640625 -1.015625 -0.640625 -2.15625l2.34375 0q0.046875 0.96875 0.546875 1.53125q0.515625 0.546875 1.234375 0.78125q0.734375 0.234375 1.453125 0.234375q0.953125 0 1.59375 -0.25q0.65625 -0.25 0.984375 -0.6875q0.34375 -0.453125 0.34375 -1.015625z" fill-rule="nonzero"/><path fill="#d5635c" d="m91.00887 409.5755l779.5276 0l0 92.787384l-779.5276 0z" fill-rule="evenodd"/><path stroke="#ffffff" stroke-width="1.3779527559055118" stroke-linejoin="round" stroke-linecap="butt" d="m91.00887 409.5755l779.5276 0l0 92.787384l-779.5276 0z" fill-rule="evenodd"/><path fill="#ffffff" d="m105.16512 458.54138l0 -0.296875q0 -1.46875 0.421875 -2.734375q0.4375 -1.265625 1.234375 -2.1875q0.8125 -0.9375 1.953125 -1.453125q1.140625 -0.53125 2.5625 -0.53125q1.4375 0 2.578125 0.53125q1.15625 0.515625 1.953125 1.453125q0.8125 0.921875 1.234375 2.1875q0.4375 1.265625 0.4375 2.734375l0 0.296875q0 1.46875 -0.4375 2.734375q-0.421875 1.25 -1.234375 2.1875q-0.796875 0.921875 -1.9375 1.453125q-1.140625 0.515625 -2.578125 0.515625q-1.421875 0 -2.578125 -0.515625q-1.140625 -0.53125 -1.953125 -1.453125q-0.796875 -0.9375 -1.234375 -2.1875q-0.421875 -1.265625 -0.421875 -2.734375zm2.328125 -0.296875l0 0.296875q0 1.015625 0.234375 1.921875q0.234375 0.890625 0.71875 1.578125q0.484375 0.6875 1.21875 1.09375q0.734375 0.390625 1.6875 0.390625q0.96875 0 1.6875 -0.390625q0.71875 -0.40625 1.1875 -1.09375q0.484375 -0.6875 0.734375 -1.578125q0.25 -0.90625 0.25 -1.921875l0 -0.296875q0 -1.0 -0.25 -1.890625q-0.25 -0.90625 -0.734375 -1.609375q-0.484375 -0.703125 -1.203125 -1.09375q-0.71875 -0.40625 -1.6875 -0.40625q-0.953125 0 -1.6875 0.40625q-0.71875 0.390625 -1.203125 1.09375q-0.484375 0.703125 -0.71875 1.609375q-0.234375 0.890625 -0.234375 1.890625zm15.286011 -4.046875l0 16.21875l-2.328125 0l0 -18.828125l2.125 0l0.203125 2.609375zm9.156242 4.078125l0 0.265625q0 1.46875 -0.359375 2.734375q-0.34375 1.265625 -1.015625 2.203125q-0.671875 0.921875 -1.65625 1.4375q-0.9687424 0.515625 -2.2343674 0.515625q-1.296875 0 -2.296875 -0.421875q-0.984375 -0.4375 -1.6875 -1.25q-0.6875 -0.8125 -1.09375 -1.953125q-0.40625 -1.15625 -0.5625 -2.578125l0 -1.40625q0.15625 -1.515625 0.5625 -2.703125q0.421875 -1.203125 1.109375 -2.046875q0.6875 -0.84375 1.65625 -1.28125q0.984375 -0.453125 2.265625 -0.453125q1.28125 0 2.2656174 0.5q1.0 0.484375 1.671875 1.40625q0.6875 0.921875 1.03125 2.203125q0.34375 1.265625 0.34375 2.828125zm-2.328125 0.265625l0 -0.265625q0 -1.015625 -0.21875 -1.90625q-0.203125 -0.90625 -0.65625 -1.59375q-0.453125 -0.6875 -1.1406174 -1.078125q-0.6875 -0.40625 -1.640625 -0.40625q-0.875 0 -1.53125 0.3125q-0.640625 0.296875 -1.09375 0.8125q-0.453125 0.5 -0.734375 1.15625q-0.28125 0.640625 -0.421875 1.328125l0 3.25q0.25 0.890625 0.703125 1.671875q0.453125 0.765625 1.203125 1.234375q0.75 0.46875 1.890625 0.46875q0.953125 0 1.625 -0.390625q0.6874924 -0.40625 1.1406174 -1.09375q0.453125 -0.6875 0.65625 -1.578125q0.21875 -0.90625 0.21875 -1.921875zm10.99733 -6.953125l0 1.78125l-7.359375 0l0 -1.78125l7.359375 0zm-4.875 -3.3125l2.328125 0l0 13.53125q0 0.703125 0.21875 1.0625q0.21875 0.34375 0.546875 0.453125q0.34375 0.109375 0.734375 0.109375q0.28125 0 0.59375 -0.046875q0.328125 -0.0625 0.5 -0.09375l0.015625 1.890625q-0.28125 0.09375 -0.734375 0.171875q-0.4375 0.078125 -1.0625 0.078125q-0.859375 0 -1.578125 -0.328125q-0.71875 -0.34375 -1.140625 -1.140625q-0.421875 -0.796875 -0.421875 -2.15625l0 -13.53125zm10.122086 3.3125l0 13.59375l-2.34375 0l0 -13.59375l2.34375 0zm-2.515625 -3.609375q0 -0.5625 0.34375 -0.953125q0.34375 -0.390625 1.03125 -0.390625q0.65625 0 1.015625 0.390625q0.359375 0.390625 0.359375 0.953125q0 0.546875 -0.359375 0.9375q-0.359375 0.375 -1.015625 0.375q-0.6875 0 -1.03125 -0.375q-0.34375 -0.390625 -0.34375 -0.9375zm8.55455 6.3125l0 10.890625l-2.328125 0l0 -13.59375l2.203125 0l0.125 2.703125zm-0.46875 3.578125l-1.078125 -0.03125q0 -1.40625 0.34375 -2.59375q0.359375 -1.1875 1.046875 -2.0625q0.703125 -0.875 1.734375 -1.359375q1.03125 -0.484375 2.390625 -0.484375q0.953125 0 1.75 0.265625q0.8125 0.265625 1.390625 0.84375q0.59375 0.578125 0.921875 1.484375q0.328125 0.90625 0.328125 2.1875l0 9.0625l-2.328125 0l0 -8.953125q0 -1.0625 -0.359375 -1.703125q-0.34375 -0.640625 -1.0 -0.9375q-0.65625 -0.296875 -1.53125 -0.296875q-1.03125 0 -1.734375 0.375q-0.6875 0.359375 -1.109375 1.0q-0.40625 0.640625 -0.59375 1.46875q-0.171875 0.8125 -0.171875 1.734375zm8.8125 -1.28125l-1.5625 0.46875q0.015625 -1.109375 0.359375 -2.140625q0.359375 -1.03125 1.046875 -1.828125q0.6875 -0.8125 1.6875 -1.28125q1.015625 -0.46875 2.3125 -0.46875q1.09375 0 1.9375 0.296875q0.84375 0.28125 1.421875 0.875q0.59375 0.59375 0.890625 1.53125q0.3125 0.921875 0.3125 2.203125l0 8.9375l-2.34375 0l0 -8.953125q0 -1.15625 -0.359375 -1.78125q-0.359375 -0.640625 -1.015625 -0.890625q-0.640625 -0.265625 -1.53125 -0.265625q-0.765625 0 -1.359375 0.265625q-0.578125 0.265625 -0.984375 0.734375q-0.40625 0.453125 -0.609375 1.046875q-0.203125 0.578125 -0.203125 1.25zm14.442841 -5.0l0 13.59375l-2.34375 0l0 -13.59375l2.34375 0zm-2.515625 -3.609375q0 -0.5625 0.34375 -0.953125q0.34375 -0.390625 1.03125 -0.390625q0.65625 0 1.015625 0.390625q0.359375 0.390625 0.359375 0.953125q0 0.546875 -0.359375 0.9375q-0.359375 0.375 -1.015625 0.375q-0.6875 0 -1.03125 -0.375q-0.34375 -0.390625 -0.34375 -0.9375zm16.382675 15.296875l0 1.90625l-9.890625 0l0 -1.90625l9.890625 0zm-0.375 -10.046875l-9.0 11.953125l-1.40625 0l0 -1.703125l8.921875 -11.890625l1.484375 0l0 1.640625zm-1.03125 -1.640625l0 1.921875l-9.28125 0l0 -1.921875l9.28125 0zm9.471802 13.84375q-1.40625 0 -2.5625 -0.484375q-1.15625 -0.484375 -1.984375 -1.359375q-0.8125 -0.875 -1.25 -2.078125q-0.4375 -1.21875 -0.4375 -2.65625l0 -0.515625q0 -1.65625 0.484375 -2.953125q0.5 -1.3125 1.328125 -2.21875q0.84375 -0.90625 1.90625 -1.359375q1.078125 -0.46875 2.21875 -0.46875q1.453125 0 2.515625 0.5q1.0625 0.5 1.734375 1.40625q0.6875 0.890625 1.015625 2.109375q0.328125 1.203125 0.328125 2.640625l0 1.046875l-10.15625 0l0 -1.90625l7.828125 0l0 -0.171875q-0.046875 -0.90625 -0.375 -1.75q-0.3125 -0.859375 -1.0 -1.40625q-0.6875 -0.5625 -1.890625 -0.5625q-0.78125 0 -1.453125 0.34375q-0.671875 0.328125 -1.15625 0.984375q-0.46875 0.640625 -0.734375 1.59375q-0.265625 0.9375 -0.265625 2.171875l0 0.515625q0 0.96875 0.265625 1.828125q0.28125 0.84375 0.796875 1.484375q0.53125 0.640625 1.265625 1.015625q0.75 0.359375 1.71875 0.359375q1.21875 0 2.078125 -0.5q0.859375 -0.515625 1.5 -1.359375l1.40625 1.125q-0.4375 0.671875 -1.125 1.28125q-0.671875 0.59375 -1.65625 0.96875q-0.984375 0.375 -2.34375 0.375zm10.3337555 -11.703125l0 11.453125l-2.328125 0l0 -13.59375l2.265625 0l0.0625 2.140625zm4.25 -2.21875l-0.015625 2.15625q-0.28125 -0.0625 -0.546875 -0.078125q-0.25 -0.015625 -0.578125 -0.015625q-0.8125 0 -1.421875 0.25q-0.609375 0.25 -1.046875 0.703125q-0.421875 0.453125 -0.671875 1.078125q-0.25 0.625 -0.3125 1.359375l-0.65625 0.375q0 -1.234375 0.234375 -2.3125q0.25 -1.078125 0.765625 -1.90625q0.515625 -0.84375 1.3125 -1.3125q0.796875 -0.46875 1.90625 -0.46875q0.25 0 0.578125 0.0625q0.328125 0.046875 0.453125 0.109375z" fill-rule="nonzero"/><path fill="#000000" fill-opacity="0.0" d="m530.02576 181.9788l303.65356 0l0 56.97638l-303.65356 0z" fill-rule="evenodd"/><path stroke="#ffffff" stroke-width="1.3779527559055118" stroke-linejoin="round" stroke-linecap="butt" d="m530.02576 181.9788l303.65356 0l0 56.97638l-303.65356 0z" fill-rule="evenodd"/><path fill="#ffffff" d="m546.71326 202.10258l0 16.546875l-2.0 0l0 -16.546875l2.0 0zm2.6616821 10.84375l0 -0.25q0 -1.25 0.359375 -2.328125q0.375 -1.09375 1.0625 -1.890625q0.703125 -0.8125 1.671875 -1.25q0.984375 -0.453125 2.203125 -0.453125q1.234375 0 2.21875 0.453125q0.984375 0.4375 1.671875 1.25q0.703125 0.796875 1.0625 1.890625q0.375 1.078125 0.375 2.328125l0 0.25q0 1.265625 -0.375 2.34375q-0.359375 1.078125 -1.0625 1.890625q-0.6875 0.796875 -1.671875 1.25q-0.96875 0.4375 -2.203125 0.4375q-1.21875 0 -2.203125 -0.4375q-0.984375 -0.453125 -1.6875 -1.25q-0.6875 -0.8125 -1.0625 -1.890625q-0.359375 -1.078125 -0.359375 -2.34375zm2.0 -0.25l0 0.25q0 0.875 0.203125 1.65625q0.203125 0.765625 0.609375 1.359375q0.421875 0.59375 1.046875 0.9375q0.625 0.328125 1.453125 0.328125q0.828125 0 1.4375 -0.328125q0.625 -0.34375 1.03125 -0.9375q0.40625 -0.59375 0.609375 -1.359375q0.21875 -0.78125 0.21875 -1.65625l0 -0.25q0 -0.859375 -0.21875 -1.625q-0.203125 -0.765625 -0.625 -1.359375q-0.40625 -0.609375 -1.03125 -0.953125q-0.609375 -0.34375 -1.4375 -0.34375q-0.8125 0 -1.4375 0.34375q-0.625 0.34375 -1.046875 0.953125q-0.40625 0.59375 -0.609375 1.359375q-0.203125 0.765625 -0.203125 1.625zm17.910645 2.859375q0 -0.421875 -0.203125 -0.796875q-0.1875 -0.375 -0.765625 -0.671875q-0.5625 -0.3125 -1.71875 -0.546875q-0.96875 -0.203125 -1.75 -0.484375q-0.78125 -0.28125 -1.328125 -0.671875q-0.546875 -0.40625 -0.84375 -0.9375q-0.28125 -0.546875 -0.28125 -1.265625q0 -0.6875 0.296875 -1.296875q0.3125 -0.625 0.875 -1.09375q0.578125 -0.46875 1.375 -0.734375q0.796875 -0.28125 1.765625 -0.28125q1.40625 0 2.390625 0.5q1.0 0.5 1.53125 1.328125q0.53125 0.8125 0.53125 1.8125l-2.0 0q0 -0.484375 -0.296875 -0.9375q-0.28125 -0.453125 -0.828125 -0.75q-0.53125 -0.3125 -1.328125 -0.3125q-0.828125 0 -1.34375 0.25q-0.5 0.25 -0.734375 0.640625q-0.234375 0.390625 -0.234375 0.828125q0 0.3125 0.109375 0.578125q0.125 0.25 0.40625 0.46875q0.296875 0.203125 0.828125 0.390625q0.53125 0.171875 1.34375 0.359375q1.4375 0.3125 2.359375 0.765625q0.921875 0.453125 1.375 1.109375q0.453125 0.65625 0.453125 1.59375q0 0.765625 -0.328125 1.40625q-0.3125 0.640625 -0.90625 1.09375q-0.59375 0.453125 -1.421875 0.71875q-0.828125 0.25 -1.84375 0.25q-1.546875 0 -2.609375 -0.546875q-1.0625 -0.5625 -1.625 -1.421875q-0.546875 -0.875 -0.546875 -1.84375l2.015625 0q0.03125 0.8125 0.46875 1.296875q0.4375 0.46875 1.0625 0.671875q0.625 0.203125 1.234375 0.203125q0.8125 0 1.359375 -0.21875q0.5625 -0.21875 0.859375 -0.59375q0.296875 -0.375 0.296875 -0.859375zm11.38678 0q0 -0.421875 -0.203125 -0.796875q-0.1875 -0.375 -0.765625 -0.671875q-0.5625 -0.3125 -1.71875 -0.546875q-0.96875 -0.203125 -1.75 -0.484375q-0.78125 -0.28125 -1.328125 -0.671875q-0.546875 -0.40625 -0.84375 -0.9375q-0.28125 -0.546875 -0.28125 -1.265625q0 -0.6875 0.296875 -1.296875q0.3125 -0.625 0.875 -1.09375q0.578125 -0.46875 1.375 -0.734375q0.796875 -0.28125 1.765625 -0.28125q1.40625 0 2.390625 0.5q1.0 0.5 1.53125 1.328125q0.53125 0.8125 0.53125 1.8125l-2.0 0q0 -0.484375 -0.296875 -0.9375q-0.28125 -0.453125 -0.828125 -0.75q-0.53125 -0.3125 -1.328125 -0.3125q-0.828125 0 -1.34375 0.25q-0.5 0.25 -0.734375 0.640625q-0.234375 0.390625 -0.234375 0.828125q0 0.3125 0.109375 0.578125q0.125 0.25 0.40625 0.46875q0.296875 0.203125 0.828125 0.390625q0.53125 0.171875 1.34375 0.359375q1.4375 0.3125 2.359375 0.765625q0.921875 0.453125 1.375 1.109375q0.453125 0.65625 0.453125 1.59375q0 0.765625 -0.328125 1.40625q-0.3125 0.640625 -0.90625 1.09375q-0.59375 0.453125 -1.421875 0.71875q-0.828125 0.25 -1.84375 0.25q-1.546875 0 -2.609375 -0.546875q-1.0625 -0.5625 -1.625 -1.421875q-0.546875 -0.875 -0.546875 -1.84375l2.015625 0q0.03125 0.8125 0.46875 1.296875q0.4375 0.46875 1.0625 0.671875q0.625 0.203125 1.234375 0.203125q0.8125 0 1.359375 -0.21875q0.5625 -0.21875 0.859375 -0.59375q0.296875 -0.375 0.296875 -0.859375zm13.046753 3.09375l-2.0 0l0 -12.890625q0 -1.25 0.453125 -2.109375q0.46875 -0.875 1.328125 -1.3125q0.859375 -0.453125 2.046875 -0.453125q0.34375 0 0.6875 0.046875q0.359375 0.03125 0.6875 0.125l-0.109375 1.625q-0.21875 -0.0625 -0.515625 -0.078125q-0.28125 -0.03125 -0.5625 -0.03125q-0.640625 0 -1.09375 0.265625q-0.453125 0.25 -0.6875 0.734375q-0.234375 0.484375 -0.234375 1.1875l0 12.890625zm2.46875 -11.65625l0 1.53125l-6.3125 0l0 -1.53125l6.3125 0zm9.357666 8.96875l0 -8.96875l2.0 0l0 11.65625l-1.90625 0l-0.09375 -2.6875zm0.375 -2.46875l0.828125 -0.015625q0 1.171875 -0.25 2.15625q-0.234375 0.984375 -0.78125 1.703125q-0.53125 0.71875 -1.40625 1.125q-0.875 0.40625 -2.125 0.40625q-0.84375 0 -1.5625 -0.25q-0.703125 -0.25 -1.203125 -0.765625q-0.5 -0.515625 -0.78125 -1.34375q-0.28125 -0.828125 -0.28125 -2.0l0 -7.515625l2.0 0l0 7.546875q0 0.78125 0.171875 1.296875q0.1875 0.5 0.484375 0.796875q0.3125 0.296875 0.6875 0.421875q0.390625 0.125 0.796875 0.125q1.28125 0 2.015625 -0.484375q0.75 -0.5 1.078125 -1.328125q0.328125 -0.84375 0.328125 -1.875zm6.6467896 -4.015625l0 9.171875l-2.0 0l0 -11.65625l1.890625 0l0.109375 2.484375zm-0.484375 2.90625l-0.828125 -0.03125q0.015625 -1.203125 0.359375 -2.21875q0.34375 -1.015625 0.96875 -1.765625q0.625 -0.765625 1.484375 -1.171875q0.875 -0.421875 1.9375 -0.421875q0.859375 0 1.546875 0.234375q0.6875 0.234375 1.171875 0.75q0.5 0.5 0.75 1.296875q0.265625 0.796875 0.265625 1.953125l0 7.640625l-2.0 0l0 -7.65625q0 -0.921875 -0.28125 -1.46875q-0.265625 -0.5625 -0.78125 -0.8125q-0.515625 -0.25 -1.265625 -0.25q-0.75 0 -1.359375 0.3125q-0.609375 0.3125 -1.046875 0.859375q-0.4375 0.546875 -0.6875 1.25q-0.234375 0.703125 -0.234375 1.5zm15.340149 4.84375q0.703125 0 1.296875 -0.28125q0.609375 -0.296875 1.0 -0.8125q0.390625 -0.515625 0.453125 -1.171875l1.890625 0q-0.0625 1.03125 -0.703125 1.921875q-0.640625 0.890625 -1.671875 1.4375q-1.03125 0.546875 -2.265625 0.546875q-1.3125 0 -2.296875 -0.46875q-0.96875 -0.46875 -1.609375 -1.265625q-0.640625 -0.8125 -0.96875 -1.859375q-0.3125 -1.046875 -0.3125 -2.234375l0 -0.4375q0 -1.1875 0.3125 -2.234375q0.328125 -1.046875 0.96875 -1.84375q0.640625 -0.8125 1.609375 -1.28125q0.984375 -0.46875 2.296875 -0.46875q1.359375 0 2.375 0.5625q1.03125 0.546875 1.609375 1.5q0.59375 0.953125 0.65625 2.15625l-1.890625 0q-0.0625 -0.71875 -0.421875 -1.296875q-0.34375 -0.578125 -0.9375 -0.921875q-0.59375 -0.359375 -1.390625 -0.359375q-0.921875 0 -1.546875 0.359375q-0.609375 0.359375 -0.96875 0.96875q-0.359375 0.609375 -0.515625 1.359375q-0.15625 0.734375 -0.15625 1.5l0 0.4375q0 0.765625 0.140625 1.515625q0.15625 0.75 0.515625 1.359375q0.359375 0.59375 0.96875 0.953125q0.625 0.359375 1.5625 0.359375zm11.76709 -10.234375l0 1.53125l-6.3125 0l0 -1.53125l6.3125 0zm-4.171875 -2.828125l1.984375 0l0 11.59375q0 0.59375 0.1875 0.90625q0.1875 0.296875 0.46875 0.390625q0.296875 0.09375 0.625 0.09375q0.25 0 0.515625 -0.046875q0.28125 -0.046875 0.421875 -0.078125l0.015625 1.625q-0.234375 0.078125 -0.625 0.140625q-0.375 0.078125 -0.921875 0.078125q-0.71875 0 -1.34375 -0.28125q-0.609375 -0.296875 -0.96875 -0.984375q-0.359375 -0.6875 -0.359375 -1.84375l0 -11.59375zm8.670837 2.828125l0 11.65625l-2.0 0l0 -11.65625l2.0 0zm-2.15625 -3.09375q0 -0.484375 0.296875 -0.8125q0.296875 -0.34375 0.875 -0.34375q0.578125 0 0.875 0.34375q0.3125 0.328125 0.3125 0.8125q0 0.46875 -0.3125 0.796875q-0.296875 0.328125 -0.875 0.328125q-0.578125 0 -0.875 -0.328125q-0.296875 -0.328125 -0.296875 -0.796875zm4.817932 9.046875l0 -0.25q0 -1.25 0.359375 -2.328125q0.375 -1.09375 1.0625 -1.890625q0.703125 -0.8125 1.671875 -1.25q0.984375 -0.453125 2.203125 -0.453125q1.234375 0 2.21875 0.453125q0.984375 0.4375 1.671875 1.25q0.703125 0.796875 1.0625 1.890625q0.375 1.078125 0.375 2.328125l0 0.25q0 1.265625 -0.375 2.34375q-0.359375 1.078125 -1.0625 1.890625q-0.6875 0.796875 -1.671875 1.25q-0.96875 0.4375 -2.203125 0.4375q-1.21875 0 -2.203125 -0.4375q-0.984375 -0.453125 -1.6875 -1.25q-0.6875 -0.8125 -1.0625 -1.890625q-0.359375 -1.078125 -0.359375 -2.34375zm2.0 -0.25l0 0.25q0 0.875 0.203125 1.65625q0.203125 0.765625 0.609375 1.359375q0.421875 0.59375 1.046875 0.9375q0.625 0.328125 1.453125 0.328125q0.828125 0 1.4375 -0.328125q0.625 -0.34375 1.03125 -0.9375q0.40625 -0.59375 0.609375 -1.359375q0.21875 -0.78125 0.21875 -1.65625l0 -0.25q0 -0.859375 -0.21875 -1.625q-0.203125 -0.765625 -0.625 -1.359375q-0.40625 -0.609375 -1.03125 -0.953125q-0.609375 -0.34375 -1.4375 -0.34375q-0.8125 0 -1.4375 0.34375q-0.625 0.34375 -1.046875 0.953125q-0.40625 0.59375 -0.609375 1.359375q-0.203125 0.765625 -0.203125 1.625zm13.11377 -3.21875l0 9.171875l-2.0 0l0 -11.65625l1.890625 0l0.109375 2.484375zm-0.484375 2.90625l-0.828125 -0.03125q0.015625 -1.203125 0.359375 -2.21875q0.34375 -1.015625 0.96875 -1.765625q0.625 -0.765625 1.484375 -1.171875q0.875 -0.421875 1.9375 -0.421875q0.859375 0 1.546875 0.234375q0.6875 0.234375 1.171875 0.75q0.5 0.5 0.75 1.296875q0.265625 0.796875 0.265625 1.953125l0 7.640625l-2.0 0l0 -7.65625q0 -0.921875 -0.28125 -1.46875q-0.265625 -0.5625 -0.78125 -0.8125q-0.515625 -0.25 -1.265625 -0.25q-0.75 0 -1.359375 0.3125q-0.609375 0.3125 -1.046875 0.859375q-0.4375 0.546875 -0.6875 1.25q-0.234375 0.703125 -0.234375 1.5z" fill-rule="nonzero"/><path fill="#000000" fill-opacity="0.0" d="m530.02576 252.5501l303.65356 0l0 56.976395l-303.65356 0z" fill-rule="evenodd"/><path stroke="#ffffff" stroke-width="1.3779527559055118" stroke-linejoin="round" stroke-linecap="butt" d="m530.02576 252.5501l303.65356 0l0 56.976395l-303.65356 0z" fill-rule="evenodd"/><path fill="#ffffff" d="m544.6195 288.15826q0 -0.5 0.3125 -0.84375q0.328125 -0.359375 0.9375 -0.359375q0.59375 0 0.90625 0.359375q0.328125 0.34375 0.328125 0.84375q0 0.5 -0.328125 0.84375q-0.3125 0.34375 -0.90625 0.34375q-0.609375 0 -0.9375 -0.34375q-0.3125 -0.34375 -0.3125 -0.84375zm4.703125 0q0 -0.5 0.3125 -0.84375q0.328125 -0.359375 0.9375 -0.359375q0.59375 0 0.90625 0.359375q0.328125 0.34375 0.328125 0.84375q0 0.5 -0.328125 0.84375q-0.3125 0.34375 -0.90625 0.34375q-0.609375 0 -0.9375 -0.34375q-0.3125 -0.34375 -0.3125 -0.84375zm4.46875 0q0 -0.5 0.3125 -0.84375q0.328125 -0.359375 0.9375 -0.359375q0.59375 0 0.90625 0.359375q0.328125 0.34375 0.328125 0.84375q0 0.5 -0.328125 0.84375q-0.3125 0.34375 -0.90625 0.34375q-0.609375 0 -0.9375 -0.34375q-0.3125 -0.34375 -0.3125 -0.84375z" fill-rule="nonzero"/></g></svg>